<svg width="42" height="42" viewBox="0 0 42 42" fill="none" xmlns="http://www.w3.org/2000/svg">
<path d="M37.5453 6.56207C37.5403 6.56207 37.5356 6.56158 37.5307 6.56125C37.4902 6.55847 37.4567 6.53107 37.4434 6.48997C37.4405 6.4807 37.3492 6.08769 37.2527 5.61379C36.9385 5.54366 36.7071 5.48525 36.7002 5.48328C36.3757 5.39124 36.3167 5.34531 36.3072 5.27714C36.3026 5.24375 36.3264 5.19716 36.3551 5.1796C36.5196 5.07756 36.7952 4.93359 37.0986 4.7838C37.0289 4.35199 36.9949 3.99704 37.0616 3.9557C37.1435 3.90393 37.4619 4.14396 37.81 4.44436C38.1611 4.2821 38.4627 4.15027 38.5785 4.10844C38.6112 4.0963 38.6582 4.10745 38.6814 4.13313C38.7448 4.204 38.6023 4.58898 38.4208 5.002C38.6345 5.20618 38.8021 5.37557 38.8536 5.43464C39.0035 5.60649 39.0768 5.72224 39.008 5.80542C38.933 5.89631 38.5166 5.85456 38.0576 5.77556C37.6944 6.51031 37.6062 6.56207 37.5453 6.56207ZM37.4334 5.65341C37.4869 5.92543 37.5378 6.1675 37.5728 6.31459C37.647 6.20048 37.7598 5.98983 37.8825 5.74398C37.7298 5.71543 37.5766 5.68409 37.4334 5.65341ZM38.1361 5.61494C38.4538 5.66654 38.723 5.69788 38.8424 5.69238C38.7788 5.58984 38.5858 5.38796 38.3494 5.16156C38.2779 5.31914 38.2037 5.47557 38.1361 5.61494ZM37.3993 5.47779C37.5836 5.51609 37.7767 5.55309 37.9607 5.58525C38.0477 5.40642 38.1364 5.21684 38.2176 5.03687C38.0762 4.90496 37.9261 4.76961 37.7826 4.64443C37.622 4.71908 37.4534 4.79906 37.2895 4.87879C37.323 5.07149 37.3612 5.27886 37.3993 5.47779ZM36.5499 5.26147C36.6832 5.31159 36.9312 5.37557 37.2177 5.43882C37.1864 5.27976 37.1555 5.11619 37.128 4.95812C36.907 5.06771 36.7031 5.17353 36.5499 5.26147ZM37.95 4.56708C38.0652 4.66961 38.1806 4.77543 38.2887 4.87674C38.3901 4.6455 38.4722 4.44263 38.5117 4.31786C38.3802 4.37315 38.1789 4.46224 37.95 4.56708ZM37.1828 4.15856C37.1923 4.27398 37.2211 4.47208 37.2599 4.70481C37.3868 4.64328 37.5159 4.58176 37.6416 4.52286C37.4521 4.36126 37.2854 4.22788 37.1828 4.15856Z" fill="#261D2A"/>
<path d="M39.7458 31.6782C40.0057 32.1897 40.3378 32.7949 40.4748 32.8391C40.4988 32.8468 40.5367 32.8513 40.5805 32.8284C40.6 32.8183 40.6193 32.8024 40.6383 32.782C40.7256 32.6881 40.8051 32.5009 40.8582 32.3555C41.3999 33.0574 41.5287 33.0009 41.576 32.9791C41.5861 32.9744 41.6024 32.9623 41.6099 32.9542C41.8218 32.7263 42.0564 29.3598 41.9869 28.9601C41.9792 28.9159 41.9653 28.8676 41.9209 28.8447C41.9149 28.8415 41.9084 28.8392 41.9019 28.8376C41.8939 28.8353 41.8855 28.8339 41.8771 28.8337C41.8749 28.8336 41.8726 28.8336 41.8701 28.8338C41.8643 28.8341 41.8587 28.8349 41.8533 28.8363C41.8497 28.8373 41.8461 28.8383 41.8424 28.8397C41.4708 28.9529 39.3976 30.6031 38.8532 31.1886C38.7256 31.3258 38.6086 31.4676 38.699 31.5605C38.8781 31.7445 39.5213 31.7 39.7458 31.6782ZM41.433 29.2832C40.877 29.9739 39.909 31.2836 39.7437 31.5077C39.4319 31.539 38.9909 31.5427 38.8489 31.4629C38.8642 31.4374 38.899 31.3888 38.9776 31.3043C39.4472 30.7993 40.7349 29.7779 41.433 29.2832ZM40.91 32.1396C40.9042 32.1241 40.8945 32.1108 40.8808 32.1009C40.7976 31.9899 40.714 31.8745 40.6347 31.761C41.3392 30.3803 41.6777 29.6702 41.8352 29.2991C41.8272 30.1789 41.6197 32.4569 41.4979 32.8077C41.3922 32.7429 41.1554 32.4642 40.91 32.1396ZM40.5153 32.6675C40.424 32.578 40.1284 32.056 39.8926 31.592C40.097 31.3153 41.1582 29.8818 41.6683 29.2631C41.4148 29.8313 40.8487 30.9684 40.4603 31.729C40.446 31.7569 40.4483 31.7902 40.4661 31.816C40.5647 31.9585 40.6532 32.0817 40.7349 32.1921C40.6632 32.4114 40.5722 32.6156 40.5153 32.6675Z" fill="#261D2A"/>
<path d="M2.52966 6.28894C2.41662 6.22553 2.30973 6.37507 2.20998 6.53372C1.78449 7.21056 0.72407 9.63893 0.710453 10.0272C0.710043 10.0311 0.709961 10.0349 0.709961 10.0386C0.709961 10.0442 0.710699 10.0498 0.711848 10.0555C0.712258 10.0579 0.712832 10.0602 0.713488 10.0623C0.715867 10.0703 0.719395 10.078 0.72366 10.0853C0.726941 10.0912 0.730879 10.0967 0.735473 10.1018C0.769024 10.1388 0.819309 10.1397 0.864016 10.1358C1.2681 10.1 4.46043 9.00597 4.62613 8.74249C4.63196 8.73314 4.63959 8.71427 4.64147 8.70336C4.65041 8.65201 4.67166 8.51305 3.85397 8.1704C3.98079 8.08165 4.14116 7.95663 4.20941 7.8481C4.22426 7.82448 4.2346 7.80176 4.23936 7.78035C4.2501 7.73203 4.23599 7.69667 4.22238 7.67543C4.14436 7.55443 3.47409 7.38955 2.91283 7.27011C2.87616 7.04756 2.75352 6.41461 2.52966 6.28894ZM2.35379 6.6242C2.41523 6.52642 2.45312 6.48031 2.47388 6.45899C2.58757 6.57547 2.69766 7.00261 2.7477 7.31195C2.57371 7.52949 1.55759 8.80213 1.03349 9.51736C1.33159 8.71542 1.98678 7.20801 2.35379 6.6242ZM4.45567 8.67203C4.14814 8.88006 2.00048 9.66739 1.15244 9.90184C1.47047 9.65402 2.06938 9.14403 3.222 8.10757C3.35211 8.15498 3.48516 8.20601 3.61379 8.25785C3.62691 8.26851 3.64225 8.2745 3.65874 8.27614C4.03559 8.42962 4.36593 8.58671 4.45567 8.67203ZM3.66448 8.09338C3.53668 8.04285 3.39484 7.98912 3.23177 7.93046C3.20232 7.91988 3.1695 7.92628 3.14629 7.94728C2.51145 8.51855 1.55849 9.35855 1.07475 9.74983C1.5411 9.09769 2.65279 7.70291 2.86755 7.43417C3.37663 7.54245 3.95717 7.69364 4.06725 7.75877C4.03165 7.8271 3.85783 7.96762 3.66448 8.09338Z" fill="#261D2A"/>
<path d="M24.0593 37.1197H24.0588L23.7302 37.1186L24.0782 36.8826C24.117 36.8562 24.1272 36.8034 24.1009 36.7646C24.0743 36.7256 24.0212 36.7159 23.9829 36.742L23.5134 37.0603L23.5238 36.5117C23.5248 36.4648 23.4874 36.4261 23.4404 36.4251H23.4399C23.3934 36.4246 23.3549 36.4617 23.3539 36.5085L23.3447 36.9926L23.0575 36.6811C23.0256 36.6468 22.972 36.6443 22.9375 36.6762C22.9031 36.7079 22.9009 36.7618 22.9326 36.7962L23.2281 37.1167L22.6839 37.1148C22.6369 37.1147 22.5988 37.1525 22.5986 37.1994C22.5986 37.246 22.6359 37.284 22.6825 37.2847H22.6833L23.1797 37.2864L22.7918 37.5493C22.753 37.5756 22.7428 37.6285 22.7692 37.6673C22.7854 37.6912 22.8117 37.7041 22.8383 37.7045C22.8552 37.7048 22.8722 37.7 22.8871 37.6899L23.3372 37.3848L23.3267 37.9376C23.3258 37.9845 23.363 38.0231 23.41 38.0241H23.4105C23.4571 38.0247 23.4956 37.9875 23.4965 37.9408L23.5065 37.4187L23.8126 37.7508C23.8291 37.7686 23.8514 37.7778 23.874 37.7781C23.8949 37.7783 23.9161 37.771 23.9326 37.7556C23.9671 37.7239 23.9692 37.67 23.9375 37.6356L23.617 37.2879L24.0581 37.2895C24.1051 37.2896 24.1432 37.2518 24.1434 37.2049C24.1436 37.1583 24.1063 37.1203 24.0593 37.1197Z" fill="#261D2A"/>
<path d="M3.41377 14.1365H3.41328L3.08466 14.1354L3.43272 13.8994C3.47152 13.873 3.4817 13.8202 3.45536 13.7814C3.42887 13.7424 3.37571 13.7328 3.3374 13.7588L2.86786 14.0771L2.87827 13.5285C2.87918 13.4816 2.84185 13.4429 2.79493 13.442H2.79444C2.74784 13.4414 2.70937 13.4785 2.70839 13.5253L2.6992 14.0095L2.41201 13.6979C2.3801 13.6636 2.32653 13.6611 2.292 13.6931C2.25754 13.7248 2.25541 13.7787 2.28707 13.8131L2.58255 14.1336L2.03836 14.1317C1.99143 14.1316 1.95329 14.1694 1.95313 14.2163C1.95304 14.2629 1.99037 14.3009 2.03696 14.3016H2.03778L2.53415 14.3033L2.14631 14.5662C2.10751 14.5925 2.09734 14.6454 2.12367 14.6842C2.13991 14.7081 2.16616 14.721 2.19282 14.7214C2.20972 14.7216 2.2267 14.7169 2.24163 14.7068L2.69165 14.4017L2.68115 14.9545C2.68017 15.0014 2.71749 15.04 2.7645 15.041H2.76499C2.81158 15.0416 2.85005 15.0044 2.85104 14.9577L2.86097 14.4356L3.16711 14.7677C3.18359 14.7855 3.20591 14.7947 3.22847 14.795C3.24938 14.7952 3.27055 14.7879 3.28712 14.7725C3.32157 14.7408 3.3237 14.6869 3.29204 14.6525L2.97146 14.3048L3.41263 14.3064C3.45955 14.3065 3.49769 14.2687 3.49786 14.2218C3.49802 14.1752 3.4607 14.1372 3.41377 14.1365Z" fill="#261D2A"/>
<path d="M39.6045 22.6797C39.5421 22.6797 39.4815 22.6425 39.333 22.0165C38.776 21.9018 38.728 21.8356 38.7118 21.8133C38.6963 21.7919 38.69 21.753 38.6975 21.7275C38.7081 21.6919 38.7326 21.6092 39.374 21.3604C39.6039 20.784 39.6834 20.7739 39.7264 20.7684C39.7585 20.7644 39.8013 20.7845 39.8195 20.8095C39.8598 20.8651 39.8952 21.0086 39.9484 21.2381C39.9651 21.3102 39.9853 21.397 39.9971 21.4352C40.0304 21.4506 40.1041 21.4782 40.1652 21.5009C40.4916 21.6228 40.5757 21.664 40.59 21.7424C40.5953 21.7718 40.5798 21.8146 40.5572 21.8341C40.4899 21.893 40.1712 22.0066 40.0041 22.0637C39.7259 22.6748 39.6681 22.6771 39.6171 22.6793C39.6129 22.6795 39.6087 22.6797 39.6045 22.6797ZM38.9288 21.743C39.0399 21.7764 39.2429 21.8254 39.42 21.8609C39.4526 21.8674 39.4785 21.8924 39.486 21.925C39.529 22.1095 39.5856 22.3198 39.6268 22.4399C39.6901 22.3294 39.7864 22.1333 39.8647 21.9602C39.8744 21.9388 39.8926 21.9222 39.915 21.9147C40.0673 21.8633 40.2394 21.8001 40.3467 21.7547C40.2725 21.7224 40.1715 21.6847 40.1061 21.6603C39.9192 21.5905 39.8841 21.5755 39.8604 21.5426C39.8398 21.5143 39.8274 21.4668 39.7832 21.2768C39.7666 21.2052 39.7412 21.0957 39.7183 21.0135C39.6612 21.119 39.5812 21.2985 39.5185 21.4576C39.5098 21.4796 39.4921 21.4972 39.4699 21.5056C39.2717 21.5816 39.0468 21.679 38.9288 21.743Z" fill="#261D2A"/>
<path d="M6.84239 38.6186L6.84042 38.6171C6.58448 38.4187 6.53781 38.0491 6.73632 37.7931C6.93393 37.5382 7.30258 37.4909 7.55827 37.6874C7.68427 37.7851 7.76344 37.9238 7.78312 38.0795C7.80273 38.2349 7.76065 38.3891 7.66459 38.5129C7.46681 38.7676 7.09792 38.815 6.84239 38.6186ZM7.45615 37.8231C7.27297 37.6823 7.01096 37.7161 6.87061 37.8971C6.72951 38.0791 6.76265 38.3418 6.94452 38.4828L6.94599 38.4839C7.12761 38.6235 7.3897 38.5898 7.53038 38.4087C7.59872 38.3206 7.62866 38.2112 7.61455 38.1005C7.60052 37.99 7.54425 37.8915 7.45615 37.8231Z" fill="#261D2A"/>
<path d="M21.8268 3.46361L21.8248 3.46213C21.5689 3.26378 21.5222 2.89415 21.7207 2.63813C21.9183 2.38326 22.287 2.33593 22.5427 2.53239C22.6687 2.63009 22.7478 2.7688 22.7675 2.9245C22.7871 3.07995 22.745 3.23409 22.649 3.35795C22.4513 3.61266 22.0823 3.66007 21.8268 3.46361ZM22.4406 2.66815C22.2574 2.5273 21.9954 2.5611 21.8551 2.74214C21.714 2.92409 21.7471 3.18684 21.929 3.32785L21.9305 3.329C22.1121 3.46861 22.3742 3.4349 22.5148 3.25386C22.5832 3.16575 22.6131 3.05632 22.599 2.94566C22.585 2.835 22.5286 2.73648 22.4406 2.66815Z" fill="#261D2A"/>
<path d="M4.43466 25.3314C4.10982 25.3314 2.27273 24.7707 2.08971 24.499C2.04443 24.4317 2.06806 24.3767 2.08036 24.3559C2.18881 24.1731 2.55573 23.8833 2.71414 23.7631C2.39298 23.3184 0.740219 20.8426 2.09841 18.7551C2.11875 18.7237 2.15706 18.7091 2.19307 18.7197C4.01203 19.2419 4.02787 19.365 4.0355 19.4242C4.03993 19.4587 4.0291 19.5098 3.98685 19.6997C3.84871 20.3214 3.43371 22.1889 4.05428 23.1993C5.10428 22.7519 5.13357 22.7911 5.17753 22.8501C5.201 22.8814 5.19583 22.9373 5.17089 22.9677C5.14661 23.0131 5.07319 23.3578 5.00839 23.6619C4.72817 24.978 4.62054 25.3052 4.46025 25.3299C4.45303 25.3309 4.44459 25.3314 4.43466 25.3314ZM2.2418 24.4189C2.4317 24.6253 4.20776 25.1876 4.43458 25.1619C4.53318 25.0774 4.73416 24.1336 4.84211 23.6265C4.9088 23.3133 4.94957 23.1273 4.97959 23.0153C4.78502 23.0811 4.40177 23.2349 4.05502 23.3834C4.01745 23.3993 3.97405 23.3867 3.95133 23.3529C3.23536 22.2974 3.6607 20.3834 3.8209 19.6628C3.83887 19.5818 3.85609 19.5044 3.86315 19.4639C3.71869 19.3685 2.93882 19.1122 2.20702 18.9004C0.84891 21.0806 2.87861 23.7013 2.89936 23.7276C2.91364 23.7457 2.91995 23.7687 2.91684 23.7917C2.91372 23.8144 2.9015 23.8352 2.88287 23.8488C2.73998 23.9536 2.36058 24.2506 2.2418 24.4189Z" fill="#261D2A"/>
<path d="M7.19537 17.638C7.19537 17.638 15.9203 15.6236 16.0996 15.4113C16.2789 15.1991 14.2455 8.7529 13.8244 8.7191C9.8841 8.40263 6.62312 10.5154 6.37522 10.7109C6.12732 10.9065 7.19537 17.638 7.19537 17.638Z" fill="#403955"/>
<path d="M6.95415 11.6669C6.9252 11.6669 6.89698 11.6521 6.88114 11.6254C6.85711 11.5853 6.87032 11.533 6.91051 11.5089C6.92003 11.5032 7.87315 10.938 9.15661 10.4714C10.3455 10.0392 12.0707 9.60495 13.537 9.99247C13.5824 10.0044 13.6094 10.0509 13.5975 10.0963C13.5855 10.1416 13.5384 10.1695 13.4937 10.1567C10.7617 9.43646 7.03487 11.6325 6.99763 11.6549C6.98393 11.663 6.96892 11.6669 6.95415 11.6669Z" fill="white"/>
<path d="M29.4598 10.0686C29.4598 10.0686 21.315 13.7894 21.0435 13.7305C20.772 13.6715 18.4551 7.32178 18.7683 7.03828C21.6992 4.3858 25.5722 4.07318 25.8879 4.07703C26.2036 4.08097 29.4598 10.0686 29.4598 10.0686Z" fill="#403955"/>
<path d="M19.8397 8.0096C19.8217 8.0096 19.8034 8.00377 19.7879 7.99188C19.7508 7.96333 19.7439 7.90993 19.7726 7.87277C20.6992 6.67216 22.3312 5.96464 23.5372 5.58262C24.839 5.17025 25.9393 5.03736 25.9502 5.03621C25.9965 5.02891 26.0389 5.0641 26.0445 5.11053C26.05 5.15712 26.0167 5.19929 25.9701 5.20478C25.9269 5.20995 21.6323 5.74078 19.9071 7.97662C19.8903 7.99811 19.8652 8.0096 19.8397 8.0096Z" fill="white"/>
<path d="M17.1968 12.7116L22.2838 29.7211C21.0949 29.922 8.55043 34.1548 7.85554 32.6278C7.16065 31.1007 5.29534 15.7816 5.47614 15.584C10.4913 10.1021 17.1968 12.7116 17.1968 12.7116Z" fill="#BE607A"/>
<path d="M17.3291 38.3134C21.2285 36.9877 23.4471 33.1409 22.2845 29.7214C21.1219 26.3019 17.0184 24.6046 13.119 25.9303C9.21965 27.2561 7.00106 31.1028 8.16364 34.5223C9.32623 37.9418 13.4297 39.6392 17.3291 38.3134Z" fill="#E6C11B"/>
<path d="M16.8967 37.0398C19.8862 36.0234 21.5871 33.0741 20.6958 30.4525C19.8045 27.8308 16.6584 26.5295 13.6689 27.5459C10.6793 28.5623 8.97843 31.5115 9.86976 34.1332C10.7611 36.7548 13.9071 38.0562 16.8967 37.0398Z" fill="#76ADA2"/>
<path d="M18.3408 12.3226L24.6753 28.908C25.7401 28.3425 38.2651 24.0525 37.8853 22.4182C37.5055 20.784 29.6488 7.49166 29.3833 7.4559C21.4253 6.38473 18.3408 12.3226 18.3408 12.3226Z" fill="#BE607A"/>
<path d="M33.8418 32.6993C37.7412 31.3736 39.9597 27.5268 38.7972 24.1073C37.6346 20.6878 33.5311 18.9905 29.6317 20.3162C25.7323 21.6419 23.5138 25.4887 24.6763 28.9082C25.8389 32.3277 29.9424 34.025 33.8418 32.6993Z" fill="#E6C11B"/>
<path d="M33.4094 31.4256C36.3989 30.4092 38.0998 27.46 37.2085 24.8383C36.3172 22.2167 33.1711 20.9153 30.1816 21.9317C27.192 22.9481 25.4911 25.8974 26.3825 28.519C27.2738 31.1407 30.4198 32.442 33.4094 31.4256Z" fill="#76ADA2"/>
<path d="M17.3418 15.1843C17.3418 15.1843 19.846 24.2389 20.0364 23.9368C21.2822 21.9602 23.1338 22.8291 23.1338 22.8291L19.7336 14.3711C18.0829 13.7983 17.3418 15.1843 17.3418 15.1843Z" fill="#403955"/>
<path d="M13.7511 35.8654C13.7446 35.8654 13.7381 35.8647 13.7315 35.8631C13.6859 35.8525 13.6575 35.8066 13.6683 35.761L15.4003 28.3751C15.4111 28.3295 15.4568 28.3004 15.5024 28.3119C15.548 28.3225 15.5764 28.3684 15.5657 28.414L13.8337 35.7999C13.8245 35.839 13.7896 35.8654 13.7511 35.8654Z" fill="white"/>
<path d="M16.6221 33.5989C16.6188 33.5989 16.6155 33.5987 16.6122 33.5984C16.5657 33.5929 16.5322 33.5506 16.5377 33.5041L16.9021 30.3834C16.9076 30.3368 16.9482 30.3046 16.9963 30.3087C17.0428 30.3142 17.0763 30.3565 17.0708 30.4029L16.7064 33.5235C16.7014 33.5669 16.6647 33.5989 16.6221 33.5989Z" fill="white"/>
<path d="M28.5283 29.551C28.5186 29.551 28.5086 29.5494 28.4989 29.5457C28.4548 29.5294 28.4324 29.4805 28.4487 29.4365L30.9999 22.5437C31.0162 22.4998 31.0653 22.477 31.109 22.4936C31.1531 22.5099 31.1756 22.5588 31.1592 22.6028L28.6081 29.4956C28.5953 29.5298 28.5629 29.551 28.5283 29.551Z" fill="white"/>
<path d="M31.4297 27.5171C31.4199 27.5171 31.4098 27.5154 31.4001 27.5117C31.3561 27.4953 31.3337 27.4463 31.3501 27.4024L32.4907 24.3401C32.5072 24.2961 32.5566 24.2737 32.6 24.2901C32.6439 24.3065 32.6663 24.3555 32.65 24.3995L31.5094 27.4618C31.4966 27.496 31.4642 27.5171 31.4297 27.5171Z" fill="white"/>
<path d="M5.56626 17.2246C5.55051 17.2246 5.5346 17.2202 5.52041 17.211C5.48103 17.1856 5.46955 17.1332 5.49498 17.0937C5.52672 17.0442 8.7677 12.1803 17.1725 14.5368C17.2177 14.5495 17.244 14.5964 17.2314 14.6415C17.2186 14.6868 17.1717 14.7132 17.1267 14.7004C14.7375 14.0308 11.2565 13.5495 8.23999 15.0625C6.43735 15.9667 5.64551 17.1736 5.63771 17.1856C5.62147 17.2108 5.59415 17.2246 5.56626 17.2246Z" fill="white"/>
<path d="M19.5409 13.8904C19.5289 13.8904 19.5166 13.888 19.5049 13.8825C19.4624 13.8624 19.4442 13.812 19.4641 13.7695C22.3711 7.57363 29.8892 8.75332 29.9645 8.76579C30.0108 8.77358 30.042 8.81722 30.0343 8.86348C30.0265 8.90991 29.9823 8.94092 29.9365 8.93329C29.8623 8.9205 22.4694 7.76336 19.6179 13.8415C19.6034 13.8724 19.5728 13.8904 19.5409 13.8904Z" fill="white"/>
<path d="M7.50479 29.2816C7.48945 29.2816 7.47394 29.2774 7.46 29.2688C7.42021 29.244 7.40799 29.1917 7.43268 29.1519C9.89485 25.1934 13.2087 24.3556 15.5553 24.3498C15.5636 24.3498 15.5722 24.3498 15.5805 24.3498C18.107 24.3498 20.0785 25.286 20.0982 25.2955C20.1405 25.3159 20.1582 25.3665 20.1378 25.4088C20.1175 25.4511 20.0666 25.4693 20.0245 25.4484C20.005 25.4391 18.0662 24.5196 15.5805 24.5196C15.57 24.5196 15.5598 24.5196 15.5493 24.5196C13.2478 24.5268 9.99632 25.3517 7.57698 29.2413C7.56098 29.2674 7.53317 29.2816 7.50479 29.2816Z" fill="white"/>
<path d="M23.3241 24.1862C23.3102 24.1862 23.2961 24.1826 23.2832 24.1756C23.2421 24.1529 23.2271 24.1013 23.2499 24.0603C23.2613 24.0396 24.4179 21.9714 26.55 20.3911C28.5227 18.929 31.7562 17.5947 35.9579 19.5413C36.0005 19.5611 36.019 19.6116 35.9992 19.6541C35.9795 19.6968 35.9291 19.7153 35.8865 19.6956C31.7626 17.7847 28.5906 19.0915 26.6556 20.5244C24.5514 22.0821 23.4098 24.1219 23.3985 24.1425C23.3831 24.1704 23.354 24.1862 23.3241 24.1862Z" fill="white"/>
<path d="M30.0899 10.5648C30.0444 10.5648 30.0067 10.5288 30.0051 10.4829C29.9936 10.1584 29.7435 10.1286 29.715 10.1262C29.6685 10.1224 29.6334 10.0817 29.637 10.0351C29.6404 9.98854 29.6812 9.95269 29.7269 9.95663C29.8759 9.96655 30.1611 10.0882 30.1748 10.4768C30.1765 10.5235 30.1398 10.5631 30.093 10.5647C30.092 10.5648 30.091 10.5648 30.0899 10.5648Z" fill="white"/>
<path d="M29.8867 11.2792C29.8413 11.2792 29.8036 11.2432 29.802 11.1973C29.7904 10.8727 29.5404 10.843 29.5119 10.8406C29.4654 10.8368 29.4303 10.7961 29.4338 10.7495C29.4374 10.7029 29.4776 10.6678 29.5238 10.6711C29.6727 10.681 29.9579 10.8025 29.9717 11.1913C29.9734 11.238 29.9367 11.2775 29.8899 11.2792C29.8889 11.2792 29.8879 11.2792 29.8867 11.2792Z" fill="white"/>
<path d="M30.75 11.3641C30.7045 11.3641 30.6668 11.3279 30.6653 11.2822C30.6539 10.9577 30.4037 10.928 30.3752 10.9257C30.3287 10.9218 30.2936 10.8812 30.2971 10.8346C30.3006 10.7882 30.3406 10.7517 30.3871 10.7562C30.5361 10.7661 30.8213 10.8876 30.835 11.2762C30.8366 11.3231 30.8 11.3624 30.7531 11.3641C30.7521 11.3641 30.7511 11.3641 30.75 11.3641Z" fill="white"/>
<path d="M30.6416 12.1428C30.5961 12.1428 30.5584 12.1066 30.5569 12.0608C30.5454 11.7364 30.2953 11.7067 30.2668 11.7043C30.2203 11.7005 30.1852 11.6598 30.1887 11.6132C30.1922 11.5667 30.2329 11.5308 30.2787 11.5348C30.4277 11.5447 30.7129 11.6662 30.7266 12.0548C30.7282 12.1017 30.6916 12.141 30.6447 12.1428C30.6437 12.1428 30.6427 12.1428 30.6416 12.1428Z" fill="white"/>
<path d="M29.7954 12.0447C29.7498 12.0447 29.7122 12.0086 29.7106 11.9628C29.6988 11.6284 29.4325 11.6068 29.4211 11.6061C29.3744 11.603 29.3389 11.5625 29.342 11.5157C29.3451 11.469 29.3861 11.4325 29.4324 11.4366C29.5813 11.4465 29.8666 11.568 29.8803 11.9568C29.8819 12.0037 29.8452 12.043 29.7984 12.0447C29.7974 12.0447 29.7964 12.0447 29.7954 12.0447Z" fill="white"/>
<path d="M31.4522 12.306C31.4067 12.306 31.369 12.27 31.3674 12.224C31.3559 11.8995 31.1058 11.8698 31.0774 11.8674C31.0309 11.8636 30.9957 11.8229 30.9993 11.7763C31.0027 11.7297 31.0436 11.6927 31.0893 11.6979C31.2381 11.7078 31.5234 11.8293 31.5371 12.2181C31.5388 12.2648 31.5021 12.3043 31.4553 12.306C31.4543 12.306 31.4532 12.306 31.4522 12.306Z" fill="white"/>
<path d="M31.1047 13.0199C31.0983 13.0199 31.092 13.0193 31.0856 13.0178C31.0399 13.0074 31.0113 12.9618 31.0219 12.916C31.1028 12.5637 30.8937 12.4699 30.8696 12.4603C30.8263 12.4432 30.8043 12.3944 30.821 12.3509C30.8376 12.3073 30.8857 12.2846 30.9292 12.3013C31.0593 12.3492 31.2808 12.5473 31.1874 12.954C31.1783 12.9934 31.1433 13.0199 31.1047 13.0199Z" fill="white"/>
<path d="M7.83221 25.7832C7.81769 25.7832 7.80292 25.7796 7.78939 25.7715C7.6606 25.6962 7.45937 25.4604 7.62024 25.1062C7.6396 25.0638 7.68988 25.0448 7.73262 25.064C7.77536 25.0834 7.79423 25.1336 7.77487 25.1765C7.63656 25.4811 7.86535 25.619 7.87519 25.6249C7.91563 25.6486 7.92925 25.7005 7.90562 25.7409C7.88987 25.7681 7.86141 25.7832 7.83221 25.7832Z" fill="white"/>
<path d="M8.33204 25.234C8.3176 25.234 8.30292 25.2302 8.28955 25.2224C8.16059 25.1471 7.95937 24.9112 8.12023 24.5572C8.13951 24.5144 8.18972 24.4958 8.2327 24.515C8.27544 24.5345 8.29422 24.5847 8.27486 24.6275C8.1405 24.9231 8.35123 25.0613 8.37568 25.076C8.41555 25.1001 8.42884 25.1522 8.40505 25.1921C8.38913 25.2191 8.36108 25.234 8.33204 25.234Z" fill="white"/>
<path d="M7.59661 24.7733C7.58217 24.7733 7.56757 24.7694 7.55412 24.7616C7.42524 24.6865 7.22402 24.4506 7.38488 24.0964C7.40416 24.0538 7.45437 24.0349 7.49735 24.0543C7.54001 24.0737 7.55887 24.1239 7.53951 24.1667C7.40515 24.4625 7.6158 24.6005 7.64025 24.6153C7.68012 24.6393 7.6934 24.6912 7.66962 24.7314C7.65378 24.7583 7.62565 24.7733 7.59661 24.7733Z" fill="white"/>
<path d="M8.04101 24.1245C8.02657 24.1245 8.01197 24.1206 7.99852 24.1128C7.86965 24.0377 7.66834 23.8018 7.82921 23.4477C7.84857 23.405 7.89844 23.3861 7.94167 23.4055C7.98433 23.4249 8.0032 23.4751 7.98384 23.518C7.84947 23.8135 8.06012 23.9517 8.08465 23.9665C8.1246 23.9905 8.13789 24.0425 8.1141 24.0826C8.09827 24.1096 8.07005 24.1245 8.04101 24.1245Z" fill="white"/>
<path d="M8.75481 24.5893C8.74037 24.5893 8.72577 24.5854 8.71232 24.5776C8.58345 24.5025 8.38222 24.2666 8.54309 23.9124C8.56245 23.8698 8.6124 23.8509 8.65555 23.8703C8.69821 23.8897 8.71708 23.9399 8.69772 23.9827C8.56335 24.2785 8.77401 24.4165 8.79845 24.4313C8.83832 24.4553 8.85161 24.5072 8.82782 24.5474C8.81207 24.5744 8.78385 24.5893 8.75481 24.5893Z" fill="white"/>
<path d="M7.38769 23.6172C7.37325 23.6172 7.35865 23.6134 7.3452 23.6056C7.21633 23.5305 7.01502 23.2946 7.17589 22.9405C7.19533 22.8978 7.24528 22.8789 7.28835 22.8983C7.33101 22.9177 7.34987 22.9679 7.33052 23.0108C7.19615 23.3063 7.4068 23.4445 7.43125 23.4593C7.4712 23.4833 7.48449 23.5353 7.4607 23.5754C7.44487 23.6023 7.41673 23.6172 7.38769 23.6172Z" fill="white"/>
<path d="M7.81993 23.1637C7.79738 23.1637 7.77482 23.1548 7.75817 23.137C7.66301 23.0362 7.553 22.7601 7.81772 22.4377C7.84742 22.4015 7.90082 22.396 7.93724 22.4259C7.9735 22.4557 7.97875 22.5091 7.94897 22.5455C7.7119 22.8341 7.88006 23.0187 7.88179 23.0205C7.91394 23.0545 7.91238 23.1083 7.87826 23.1404C7.86185 23.1561 7.84085 23.1637 7.81993 23.1637Z" fill="white"/>
<path d="M23.1747 22.9487C23.367 23.5145 22.8092 24.2159 21.9287 24.5152C21.0482 24.8145 20.1786 24.5986 19.9862 24.0328C19.7938 23.467 20.3516 22.7656 21.2322 22.4663C22.1127 22.167 22.9824 22.383 23.1747 22.9487Z" fill="#76ADA2"/>
<path d="M21.3091 21.1377C21.2747 21.1377 21.2423 21.1167 21.2295 21.0825L18.9917 15.0716C18.9753 15.0276 18.9977 14.9788 19.0417 14.9623C19.0853 14.9457 19.1346 14.9683 19.1509 15.0122L21.3887 21.0231C21.405 21.0671 21.3826 21.116 21.3387 21.1325C21.329 21.136 21.319 21.1377 21.3091 21.1377Z" fill="white"/>
<path d="M5.02501 7.2683C4.99646 7.2683 4.96857 7.25386 4.95257 7.22769C4.94921 7.22236 4.87161 7.09431 4.81222 6.89464C4.79885 6.84969 4.82452 6.80244 4.86948 6.78899C4.91492 6.77586 4.96176 6.80146 4.97513 6.84624C5.02771 7.02343 5.09678 7.13819 5.09744 7.13918C5.1218 7.17929 5.10917 7.23155 5.06914 7.25599C5.05544 7.26428 5.0401 7.2683 5.02501 7.2683ZM9.64616 6.98627C9.63927 6.98627 9.63221 6.98545 9.62524 6.98365C9.59382 6.97569 9.56019 6.96486 9.52459 6.95083C9.44018 6.91769 9.36184 6.87135 9.29194 6.81335C9.25585 6.78333 9.25085 6.72976 9.28079 6.69375C9.31081 6.65774 9.3643 6.65282 9.40039 6.68267C9.4565 6.72927 9.51917 6.76626 9.58685 6.79284C9.61523 6.80416 9.64181 6.81294 9.66683 6.81926C9.71227 6.83074 9.73984 6.87684 9.72835 6.92245C9.71867 6.96076 9.68405 6.98627 9.64616 6.98627ZM9.94106 6.89071C9.92875 6.89071 9.91637 6.88808 9.90455 6.88242C9.86223 6.86216 9.84426 6.81163 9.86452 6.76914C9.87781 6.74124 9.88487 6.70277 9.88487 6.65765C9.88487 6.60942 9.87707 6.55397 9.86182 6.4931C9.85033 6.44765 9.87798 6.40139 9.9235 6.3899C9.96821 6.37899 10.015 6.40615 10.0265 6.45159C10.0453 6.52608 10.0548 6.59539 10.0548 6.65765C10.0548 6.72902 10.0423 6.79104 10.0178 6.84247C10.0032 6.87299 9.9728 6.89071 9.94106 6.89071ZM4.83281 6.62164C4.78843 6.62164 4.75111 6.58711 4.74815 6.54215C4.74618 6.51115 4.74512 6.47948 4.74512 6.44741C4.74512 6.35717 4.75381 6.26792 4.77096 6.18204C4.78006 6.13594 4.82477 6.10542 4.87079 6.11535C4.91681 6.12445 4.94667 6.16924 4.93748 6.21518C4.92255 6.29032 4.91492 6.36849 4.91492 6.44741C4.91492 6.47579 4.91582 6.50385 4.91763 6.53116C4.92066 6.57792 4.88523 6.61828 4.83839 6.6214C4.8365 6.62164 4.83461 6.62164 4.83281 6.62164ZM9.13436 6.57021C9.10426 6.57021 9.07505 6.55413 9.05963 6.52591C9.00516 6.42559 8.96284 6.31157 8.93371 6.18704C8.92297 6.14143 8.95135 6.09582 8.99704 6.08499C9.04265 6.07441 9.08834 6.10271 9.09909 6.14849C9.12468 6.25816 9.1616 6.35783 9.20893 6.44454C9.23132 6.48588 9.21607 6.5374 9.1748 6.55979C9.16201 6.56693 9.14806 6.57021 9.13436 6.57021ZM9.82113 6.24135C9.7902 6.24135 9.76043 6.22445 9.74541 6.19508C9.69841 6.10288 9.64091 6.00895 9.57462 5.91593C9.54731 5.87778 9.55625 5.82487 9.59439 5.79748C9.63254 5.77024 9.68561 5.77926 9.71293 5.81741C9.78413 5.91708 9.84598 6.0183 9.89676 6.11781C9.91809 6.15964 9.90152 6.21083 9.85968 6.23208C9.84721 6.23831 9.83401 6.24135 9.82113 6.24135ZM4.9657 5.96416C4.95266 5.96416 4.93945 5.96121 4.92698 5.95473C4.88531 5.93332 4.86882 5.88221 4.89023 5.84046C4.94355 5.73661 5.01196 5.63694 5.09359 5.54416C5.12468 5.50897 5.17841 5.50553 5.21343 5.53653C5.24871 5.56738 5.25207 5.62111 5.22114 5.6563C5.14871 5.73858 5.08817 5.82668 5.04133 5.91806C5.02632 5.94735 4.99654 5.96416 4.9657 5.96416ZM8.97309 5.91634C8.92764 5.91634 8.88999 5.88033 8.88835 5.83455C8.88737 5.80904 8.88696 5.78312 8.88696 5.75728C8.88696 5.6677 8.89245 5.57517 8.90328 5.48239C8.90878 5.4358 8.94914 5.40364 8.99753 5.40774C9.04405 5.41324 9.07752 5.45549 9.07202 5.502C9.06201 5.58846 9.05684 5.67418 9.05684 5.75728C9.05684 5.78115 9.05725 5.80469 9.05807 5.82824C9.0598 5.87516 9.02321 5.91453 8.97637 5.91634C8.9753 5.91634 8.97424 5.91634 8.97309 5.91634ZM13.6579 5.86212C13.6202 5.86212 13.5799 5.85949 13.5367 5.8535C13.4902 5.84719 13.4576 5.80437 13.4639 5.75794C13.4703 5.71151 13.5134 5.67714 13.5595 5.68526C13.6781 5.70101 13.7709 5.68993 13.8361 5.65228C13.8768 5.62874 13.9288 5.64252 13.9522 5.68312C13.9758 5.72373 13.9619 5.77565 13.9213 5.79928C13.8492 5.84103 13.7606 5.86212 13.6579 5.86212ZM13.2301 5.74284C13.2148 5.74284 13.1992 5.73874 13.1852 5.72988C13.0799 5.66417 12.991 5.57492 12.921 5.465C12.8958 5.42538 12.9075 5.37296 12.9472 5.3477C12.9867 5.32268 13.0392 5.33424 13.0644 5.37378C13.1208 5.46238 13.1916 5.53366 13.2752 5.58592C13.315 5.61061 13.3271 5.66303 13.3024 5.70289C13.286 5.72873 13.2584 5.74284 13.2301 5.74284ZM9.42927 5.68796C9.40638 5.68796 9.38357 5.67886 9.36684 5.66057C9.29277 5.58026 9.21287 5.50331 9.12936 5.43178C9.09376 5.40126 9.08957 5.3477 9.12009 5.31201C9.15077 5.27633 9.20434 5.27223 9.23986 5.30274C9.32837 5.37854 9.41311 5.46016 9.49177 5.54539C9.52352 5.57993 9.52139 5.63366 9.48685 5.66532C9.47053 5.6805 9.44986 5.68796 9.42927 5.68796ZM14.0416 5.528C14.0388 5.528 14.0359 5.52784 14.033 5.52751C13.9863 5.52283 13.9523 5.48124 13.957 5.43465C13.9589 5.41578 13.9598 5.39634 13.9598 5.37624C13.9598 5.30291 13.9473 5.21997 13.9228 5.12941C13.9105 5.08413 13.9372 5.03754 13.9825 5.02523C14.0276 5.01309 14.0743 5.03967 14.0867 5.08495C14.1152 5.18995 14.1297 5.28798 14.1297 5.37624C14.1297 5.40225 14.1284 5.42735 14.126 5.45155C14.1215 5.49535 14.0847 5.528 14.0416 5.528ZM5.4058 5.45458C5.38037 5.45458 5.3551 5.4431 5.33837 5.42144C5.30982 5.38428 5.31671 5.33105 5.35395 5.30233C5.44189 5.23466 5.54074 5.16994 5.64763 5.10972C5.68856 5.08651 5.74024 5.10128 5.76329 5.14205C5.78634 5.18282 5.77182 5.23474 5.73097 5.25763C5.63114 5.3139 5.5391 5.37428 5.45748 5.43695C5.44205 5.44876 5.42393 5.45458 5.4058 5.45458ZM8.91378 5.24737C8.89754 5.24737 8.88113 5.2427 8.86669 5.2331C8.7758 5.17223 8.68016 5.11645 8.58246 5.06723C8.54054 5.04615 8.52364 4.99505 8.54472 4.95329C8.56572 4.91113 8.61683 4.8939 8.65875 4.91564C8.76268 4.96789 8.8644 5.02712 8.96103 5.09184C8.96644 5.09545 8.9712 5.09964 8.97547 5.10415C9.00205 5.00366 9.0347 4.90292 9.07259 4.80424C9.08933 4.76044 9.1383 4.7387 9.18235 4.75527C9.22616 4.772 9.24806 4.82114 9.23116 4.86494C9.19146 4.96847 9.15791 5.07412 9.13157 5.17912C9.12017 5.22457 9.0735 5.25164 9.02846 5.24081C9.00984 5.23597 8.99434 5.22555 8.9831 5.21161C8.96669 5.23491 8.94044 5.24737 8.91378 5.24737ZM12.8643 5.19126C12.8259 5.19126 12.791 5.16485 12.7818 5.12589C12.7558 5.01605 12.7426 4.89718 12.7426 4.77225C12.7426 4.72533 12.7806 4.68579 12.8275 4.68579C12.8744 4.68579 12.9124 4.72229 12.9124 4.76921C12.9124 4.88381 12.924 4.98963 12.947 5.08667C12.9578 5.13228 12.9296 5.17806 12.884 5.18889C12.8774 5.19061 12.8708 5.19126 12.8643 5.19126ZM5.99413 5.11932C5.96123 5.11932 5.92981 5.10013 5.91611 5.06789C5.89766 5.02474 5.91759 4.97487 5.96066 4.95624C6.06188 4.91293 6.1709 4.87167 6.28468 4.83369C6.32914 4.81892 6.37721 4.8428 6.39206 4.88742C6.40691 4.93188 6.38295 4.97995 6.33841 4.99488C6.22906 5.03139 6.12455 5.07084 6.02768 5.11251C6.01668 5.11711 6.00528 5.11932 5.99413 5.11932ZM8.30847 4.94345C8.29912 4.94345 8.2896 4.94197 8.28025 4.93861C8.17689 4.90227 8.07058 4.87224 7.96411 4.84969C7.91825 4.83992 7.88896 4.79481 7.89864 4.74895C7.90841 4.70301 7.95344 4.6743 7.99946 4.68341C8.11307 4.70761 8.22652 4.73952 8.33669 4.77832C8.38099 4.79391 8.4042 4.84239 8.38862 4.8866C8.37631 4.92171 8.34342 4.94345 8.30847 4.94345ZM6.63692 4.90235C6.59943 4.90235 6.56506 4.87733 6.55497 4.83935C6.54283 4.79407 6.56982 4.74748 6.6151 4.73533L6.65669 4.72442C6.75677 4.69875 6.85726 4.67783 6.95553 4.66208C7.00286 4.6556 7.04544 4.68644 7.05274 4.73271C7.06012 4.77898 7.02854 4.82245 6.98227 4.82992C6.88917 4.84468 6.79401 4.86445 6.69951 4.88881L6.65899 4.89956C6.65152 4.90137 6.64422 4.90235 6.63692 4.90235ZM13.8838 4.87462C13.8522 4.87462 13.8219 4.8569 13.8073 4.82655C13.7616 4.73181 13.707 4.63567 13.6451 4.54076C13.6195 4.50146 13.6306 4.44872 13.6699 4.42312C13.709 4.39761 13.7617 4.40869 13.7874 4.44781C13.8533 4.54896 13.9115 4.6515 13.9602 4.75289C13.9806 4.79505 13.9628 4.84575 13.9206 4.86617C13.9087 4.872 13.8961 4.87462 13.8838 4.87462ZM7.64607 4.80268C7.64377 4.80268 7.64131 4.80252 7.63893 4.80235C7.53278 4.79341 7.42368 4.79161 7.31015 4.79637C7.26339 4.79423 7.22377 4.76167 7.2218 4.71491C7.21992 4.66815 7.25634 4.62845 7.30318 4.62648C7.42344 4.6218 7.53992 4.62385 7.65304 4.63312C7.69972 4.63698 7.7345 4.67808 7.73056 4.72467C7.72695 4.76913 7.68979 4.80268 7.64607 4.80268ZM17.4376 4.69694C17.4322 4.69694 17.4269 4.69645 17.4214 4.69547C17.3754 4.68653 17.3453 4.6419 17.3542 4.5958C17.3756 4.48547 17.3906 4.37555 17.3985 4.26899C17.402 4.22223 17.443 4.18671 17.4895 4.19048C17.5362 4.19393 17.5714 4.23478 17.5679 4.28154C17.5595 4.39466 17.5437 4.51131 17.521 4.6282C17.513 4.66881 17.4774 4.69694 17.4376 4.69694ZM9.29211 4.61007C9.27874 4.61007 9.2652 4.60687 9.25265 4.60031C9.21106 4.57841 9.19515 4.52714 9.21705 4.48555C9.27144 4.38219 9.33239 4.2817 9.39826 4.18646C9.42484 4.14783 9.47791 4.13807 9.51638 4.16489C9.55502 4.19163 9.5647 4.24454 9.53796 4.28301C9.47602 4.37259 9.4186 4.4675 9.36733 4.56487C9.35216 4.59367 9.32262 4.61007 9.29211 4.61007ZM12.8595 4.51631C12.8544 4.51631 12.8494 4.51582 12.8442 4.515C12.798 4.50655 12.7674 4.46242 12.7758 4.41615C12.7963 4.30352 12.8264 4.18892 12.8651 4.07539C12.8803 4.0311 12.9285 4.00739 12.9729 4.02265C13.0173 4.03774 13.041 4.08598 13.0258 4.13044C12.9898 4.23576 12.9619 4.34208 12.943 4.44658C12.9355 4.4876 12.8998 4.51631 12.8595 4.51631ZM13.5155 4.305C13.4909 4.305 13.4665 4.29433 13.4497 4.27383C13.3799 4.18876 13.305 4.10616 13.2271 4.02864C13.1938 3.99566 13.1936 3.94168 13.2267 3.90854C13.2598 3.8754 13.3136 3.8754 13.3468 3.90821C13.4289 3.98983 13.5076 4.07662 13.581 4.16628C13.6108 4.20246 13.6054 4.25603 13.5691 4.28572C13.5535 4.29868 13.5344 4.305 13.5155 4.305ZM9.67823 4.05324C9.65797 4.05324 9.63779 4.04611 9.62163 4.03151C9.58668 4.00033 9.58373 3.9466 9.61498 3.91158C9.69365 3.8238 9.77798 3.74136 9.86551 3.66622C9.90119 3.63587 9.95468 3.64005 9.98527 3.67549C10.0158 3.71117 10.0116 3.76474 9.976 3.79526C9.89405 3.86539 9.81522 3.94275 9.74156 4.02503C9.72474 4.04373 9.70161 4.05324 9.67823 4.05324ZM17.4852 4.02051C17.4408 4.02051 17.4035 3.98598 17.4006 3.94119C17.3932 3.82922 17.3767 3.72143 17.3515 3.62069C17.3403 3.57508 17.3679 3.52915 17.4134 3.51766C17.4587 3.50634 17.5051 3.5339 17.5164 3.57951C17.544 3.69001 17.5619 3.80797 17.57 3.92987C17.5731 3.97663 17.5377 4.01715 17.4909 4.02027C17.4891 4.02051 17.4872 4.02051 17.4852 4.02051ZM13.0774 3.87507C13.0645 3.87507 13.0514 3.87212 13.0393 3.86597C13.0189 3.85588 13.0044 3.8384 12.9974 3.81855C12.9916 3.81576 12.986 3.81224 12.9807 3.80814C12.8938 3.73816 12.8035 3.67328 12.7125 3.61536C12.6729 3.59018 12.6612 3.53776 12.6865 3.49806C12.7116 3.4586 12.764 3.44695 12.8038 3.47197C12.889 3.52619 12.9736 3.58608 13.0555 3.65047C13.094 3.58165 13.1357 3.51446 13.1799 3.44974C13.2063 3.4111 13.2591 3.40118 13.2979 3.42751C13.3367 3.45409 13.3467 3.50683 13.3201 3.54564C13.2586 3.63554 13.2025 3.73078 13.1535 3.82832C13.1384 3.85793 13.1084 3.87507 13.0774 3.87507ZM10.1929 3.61298C10.1649 3.61298 10.1376 3.5992 10.1214 3.57385C10.0961 3.5344 10.1075 3.48198 10.147 3.45655C10.2456 3.39339 10.3493 3.33662 10.4551 3.28822C10.4981 3.26862 10.5482 3.28756 10.5677 3.33006C10.5873 3.37271 10.5685 3.42308 10.5259 3.44252C10.4273 3.4878 10.3306 3.54055 10.2387 3.59961C10.2245 3.60864 10.2086 3.61298 10.1929 3.61298ZM12.461 3.46369C12.4487 3.46369 12.4363 3.46106 12.4245 3.4554C12.3247 3.40782 12.2222 3.36697 12.1196 3.33432C12.0749 3.32005 12.0502 3.27214 12.0646 3.22752C12.0789 3.18306 12.1265 3.15869 12.1713 3.17248C12.2812 3.20767 12.3909 3.25131 12.4976 3.30217C12.54 3.32243 12.5579 3.37296 12.5377 3.41545C12.5232 3.44589 12.4927 3.46369 12.461 3.46369ZM17.3177 3.36681C17.2865 3.36681 17.2566 3.34958 17.2417 3.31989C17.1939 3.22415 17.1347 3.13507 17.066 3.05533C17.0354 3.01982 17.0394 2.96625 17.075 2.93557C17.1103 2.90489 17.164 2.90866 17.1948 2.94451C17.2725 3.03491 17.3395 3.13564 17.3937 3.24392C17.4147 3.28592 17.3976 3.33678 17.3557 3.35787C17.3434 3.36402 17.3305 3.36681 17.3177 3.36681ZM10.808 3.33096C10.7714 3.33096 10.7377 3.30709 10.7267 3.27026C10.7132 3.2253 10.7389 3.17805 10.7838 3.1646C10.8944 3.13179 11.0095 3.10587 11.126 3.08765C11.1736 3.08134 11.2158 3.11218 11.223 3.15845C11.2303 3.20488 11.1986 3.24819 11.1522 3.25549C11.0432 3.27239 10.9356 3.29667 10.8323 3.32751C10.8242 3.32981 10.816 3.33096 10.808 3.33096ZM13.4591 3.31554C13.4389 3.31554 13.4187 3.3084 13.4024 3.2938C13.3674 3.26263 13.3646 3.2089 13.3958 3.17387C13.4738 3.08675 13.5583 3.00431 13.6467 2.92884C13.6823 2.89816 13.736 2.90243 13.7664 2.93811C13.7969 2.9738 13.7927 3.02736 13.7571 3.05788C13.6744 3.12851 13.5954 3.20586 13.5225 3.28732C13.5056 3.3061 13.4824 3.31554 13.4591 3.31554ZM11.8156 3.25877C11.8111 3.25877 11.8066 3.25844 11.802 3.25779C11.6937 3.24023 11.5845 3.23121 11.4773 3.23072C11.4303 3.23055 11.3925 3.19241 11.3927 3.14549C11.3928 3.09873 11.4308 3.06091 11.4776 3.06091H11.4779C11.594 3.0614 11.7121 3.07117 11.8291 3.09012C11.8754 3.09742 11.9069 3.14106 11.8994 3.18732C11.8927 3.22916 11.8566 3.25877 11.8156 3.25877ZM13.9745 2.87593C13.9466 2.87593 13.9192 2.86215 13.903 2.83697C13.8777 2.79751 13.8891 2.74493 13.9286 2.7195C14.027 2.65633 14.1306 2.59957 14.2364 2.55084C14.2791 2.53107 14.3295 2.54969 14.3491 2.59243C14.3688 2.63509 14.3501 2.68546 14.3075 2.70506C14.2088 2.75051 14.1122 2.80342 14.0203 2.86248C14.0061 2.87167 13.9902 2.87593 13.9745 2.87593ZM16.8798 2.85707C16.8628 2.85707 16.8455 2.8519 16.8305 2.84115C16.7469 2.78127 16.6527 2.72803 16.5509 2.68258C16.508 2.66331 16.4888 2.61327 16.5079 2.57028C16.5269 2.52763 16.5773 2.50843 16.62 2.5273C16.7323 2.57742 16.8364 2.63665 16.9294 2.70309C16.9675 2.73033 16.9763 2.7834 16.9491 2.82155C16.9324 2.84476 16.9062 2.85707 16.8798 2.85707ZM14.5888 2.59145C14.5524 2.59145 14.5189 2.56807 14.5076 2.53157C14.4938 2.48678 14.5189 2.4392 14.5637 2.42542C14.6742 2.39121 14.7888 2.36389 14.9044 2.34396C14.9518 2.33633 14.9945 2.36717 15.0025 2.41328C15.0104 2.45954 14.9794 2.50351 14.9332 2.51147C14.8247 2.53001 14.7173 2.55576 14.6138 2.58759C14.6054 2.5903 14.5971 2.59145 14.5888 2.59145ZM16.2657 2.57742C16.2584 2.57742 16.2509 2.57644 16.2435 2.57447C16.1423 2.54723 16.0338 2.52517 15.921 2.50876C15.8746 2.50195 15.8424 2.4588 15.8492 2.41237C15.8559 2.36594 15.8988 2.33461 15.9455 2.34051C16.0649 2.3579 16.1799 2.38145 16.2877 2.41049C16.3329 2.42263 16.3598 2.46922 16.3476 2.5145C16.3374 2.55232 16.3031 2.57742 16.2657 2.57742ZM15.5956 2.47652C15.5941 2.47652 15.5926 2.47652 15.591 2.47636L15.5624 2.47488C15.4591 2.47004 15.3582 2.47053 15.2603 2.47521C15.2133 2.47833 15.1734 2.44174 15.1711 2.39474C15.1687 2.34798 15.2048 2.30795 15.2517 2.30565C15.3549 2.30015 15.4612 2.29983 15.5709 2.30532L15.6 2.3068C15.6468 2.30926 15.6828 2.34929 15.6804 2.39605C15.6779 2.44133 15.6404 2.47652 15.5956 2.47652Z" fill="#261D2A"/>
<path d="M28.6168 38.2724C28.5796 38.2724 28.5428 38.2718 28.5064 38.2706C28.4596 38.269 28.4228 38.2298 28.4244 38.1828C28.426 38.1359 28.468 38.1056 28.5121 38.1007C28.6179 38.1042 28.7286 38.1024 28.8427 38.0946C28.8886 38.0901 28.93 38.1267 28.9333 38.1735C28.9365 38.2202 28.9012 38.2608 28.8544 38.2641C28.7734 38.2698 28.6941 38.2724 28.6168 38.2724ZM28.1713 38.2398C28.1671 38.2398 28.1628 38.2394 28.1584 38.2388C28.0411 38.2211 27.926 38.1958 27.8162 38.1643C27.7711 38.1513 27.7451 38.1043 27.7581 38.0591C27.7711 38.0142 27.8184 37.9877 27.8631 38.0011C27.9659 38.0306 28.0738 38.0541 28.184 38.0709C28.2303 38.0778 28.2621 38.1212 28.2551 38.1676C28.2488 38.2096 28.2127 38.2398 28.1713 38.2398ZM29.1858 38.225C29.1448 38.225 29.1088 38.1953 29.1021 38.1535C29.0946 38.1072 29.1261 38.0637 29.1724 38.0563C29.2797 38.0389 29.3895 38.0166 29.4984 37.9899C29.5439 37.9786 29.59 38.0065 29.6012 38.0521C29.6123 38.0977 29.5845 38.1436 29.539 38.1548C29.4255 38.1827 29.3113 38.2059 29.1994 38.2238C29.1948 38.2247 29.1902 38.225 29.1858 38.225ZM29.8456 38.0651C29.8097 38.0651 29.7765 38.0424 29.7648 38.0064C29.7503 37.9618 29.7746 37.914 29.8193 37.8994L29.8609 37.886C29.9531 37.8558 30.0434 37.8211 30.1288 37.7831C30.1719 37.7637 30.2219 37.7834 30.241 37.8263C30.26 37.8692 30.2407 37.9194 30.1978 37.9384C30.1071 37.9787 30.0115 38.0153 29.9135 38.0476L29.8718 38.061C29.8631 38.0637 29.8543 38.0651 29.8456 38.0651ZM27.521 38.0515C27.5094 38.0515 27.4977 38.0492 27.4864 38.0442C27.3792 37.9963 27.2749 37.9402 27.1766 37.8777C27.1371 37.8525 27.1253 37.7999 27.1506 37.7604C27.1759 37.7209 27.2284 37.7093 27.2679 37.7344C27.3592 37.7926 27.456 37.8445 27.5557 37.889C27.5986 37.9083 27.6178 37.9583 27.5987 38.0013C27.5845 38.0327 27.5535 38.0515 27.521 38.0515ZM30.464 37.7884C30.4354 37.7884 30.4074 37.774 30.3914 37.7478C30.367 37.7077 30.3796 37.6555 30.4196 37.631C30.5139 37.5736 30.6031 37.5096 30.6851 37.441C30.7212 37.4106 30.7747 37.4156 30.8048 37.4514C30.8349 37.4874 30.8301 37.5409 30.7943 37.571C30.7058 37.6451 30.6096 37.7141 30.5083 37.776C30.4944 37.7844 30.4791 37.7884 30.464 37.7884ZM26.9507 37.6875C26.9308 37.6875 26.9108 37.6806 26.8948 37.6665C26.807 37.5895 26.724 37.5049 26.6483 37.415C26.6181 37.3792 26.6227 37.3256 26.6585 37.2953C26.6944 37.2647 26.7481 37.2698 26.7782 37.3055C26.8484 37.3889 26.9254 37.4674 27.0067 37.5387C27.042 37.5696 27.0455 37.6233 27.0146 37.6585C26.9979 37.6778 26.9743 37.6875 26.9507 37.6875ZM33.3696 37.4996C33.3259 37.4996 33.2888 37.4663 33.2851 37.422C33.281 37.3752 33.3157 37.3341 33.3623 37.3301C33.4696 37.3209 33.5778 37.3027 33.6838 37.2764C33.7294 37.2653 33.7754 37.2926 33.7868 37.3382C33.7981 37.3839 33.7704 37.43 33.7248 37.4413C33.6102 37.4698 33.4931 37.4893 33.377 37.4994C33.3745 37.4994 33.372 37.4996 33.3696 37.4996ZM33.0307 37.4996C33.0284 37.4996 33.0259 37.4994 33.0236 37.4993C32.9076 37.4897 32.7905 37.4702 32.6755 37.4415C32.63 37.4301 32.6022 37.3839 32.6137 37.3385C32.6251 37.2929 32.671 37.2656 32.7167 37.2766C32.8228 37.3031 32.9308 37.3211 33.0377 37.33C33.0843 37.3339 33.1191 37.3748 33.1153 37.4216C33.1116 37.4661 33.0744 37.4996 33.0307 37.4996ZM30.9812 37.3528C30.9615 37.3528 30.9419 37.346 30.9259 37.3323C30.8903 37.3017 30.8863 37.2482 30.9168 37.2125C30.9878 37.1301 31.0519 37.0415 31.1074 36.9494C31.1316 36.9091 31.1838 36.896 31.224 36.9205C31.2642 36.9447 31.2771 36.9968 31.2529 37.037C31.1925 37.1372 31.1228 37.2336 31.0457 37.3233C31.0289 37.3427 31.0052 37.3528 30.9812 37.3528ZM34.0267 37.3374C33.9933 37.3374 33.9616 37.3175 33.9482 37.2847C33.9304 37.2414 33.9511 37.1918 33.9945 37.1739C34.0928 37.1336 34.1921 37.0851 34.29 37.0297C34.3308 37.0067 34.3826 37.021 34.4057 37.0619C34.4288 37.1027 34.4144 37.1546 34.3736 37.1776C34.2696 37.2364 34.1638 37.288 34.059 37.3311C34.0485 37.3354 34.0375 37.3374 34.0267 37.3374ZM32.3741 37.3373C32.3632 37.3373 32.3522 37.3353 32.3416 37.3308C32.237 37.2873 32.1313 37.2351 32.0275 37.175C31.987 37.1516 31.9731 37.0997 31.9966 37.059C32.0199 37.0184 32.0717 37.0043 32.1126 37.028C32.2098 37.0843 32.3087 37.1333 32.4066 37.1738C32.4499 37.1917 32.4705 37.2414 32.4525 37.2848C32.4391 37.3175 32.4074 37.3373 32.3741 37.3373ZM26.5158 37.169C26.487 37.169 26.4589 37.1544 26.443 37.1281C26.3818 37.027 26.3285 36.921 26.2844 36.8132C26.2667 36.7698 26.2875 36.7202 26.331 36.7024C26.3741 36.6844 26.4239 36.7054 26.4417 36.7489C26.4824 36.8485 26.5317 36.9465 26.5884 37.0401C26.6126 37.0803 26.5999 37.1325 26.5597 37.1568C26.5459 37.1651 26.5308 37.169 26.5158 37.169ZM34.6196 37.0082C34.5922 37.0082 34.5653 36.9949 34.549 36.9705C34.5229 36.9315 34.5333 36.8788 34.5722 36.8527C34.6686 36.788 34.7595 36.7235 34.8453 36.6588C34.8828 36.6309 34.9362 36.638 34.9643 36.6755C34.9925 36.713 34.985 36.7662 34.9475 36.7945C34.8593 36.8608 34.7658 36.9274 34.6668 36.9937C34.6522 37.0035 34.6358 37.0082 34.6196 37.0082ZM31.7868 36.9993C31.7692 36.9993 31.7513 36.9938 31.7362 36.9826C31.6453 36.9149 31.5549 36.8401 31.4677 36.7603C31.433 36.7286 31.4307 36.6749 31.4623 36.6402C31.494 36.6058 31.5477 36.6033 31.5823 36.6348C31.6653 36.711 31.7513 36.782 31.8375 36.8461C31.8751 36.8742 31.8829 36.9274 31.8549 36.9651C31.8384 36.9876 31.8127 36.9993 31.7868 36.9993ZM31.3305 36.7739C31.3201 36.7739 31.3095 36.7721 31.2993 36.7679C31.2556 36.7507 31.2343 36.7012 31.2516 36.6577C31.2667 36.6196 31.2806 36.5808 31.2935 36.5415C31.2681 36.5428 31.2413 36.5348 31.2225 36.5141C31.145 36.4292 31.0701 36.3396 30.9997 36.2478C30.9711 36.2106 30.9782 36.1574 31.0154 36.1289C31.0528 36.1002 31.1061 36.1075 31.1345 36.1446C31.1986 36.2282 31.2668 36.3098 31.3372 36.3876C31.3404 36.3738 31.3437 36.3599 31.3468 36.3459C31.3569 36.3003 31.402 36.2714 31.4481 36.2814C31.4939 36.2914 31.5228 36.3369 31.5127 36.3827C31.4871 36.4983 31.4523 36.612 31.4095 36.72C31.3963 36.7537 31.3643 36.7739 31.3305 36.7739ZM35.1611 36.5989C35.1373 36.5989 35.1135 36.589 35.0967 36.5694C35.0661 36.5337 35.0702 36.4801 35.1057 36.4496C35.1926 36.375 35.2747 36.2987 35.3499 36.2232C35.3829 36.1899 35.4368 36.1899 35.47 36.2229C35.5032 36.2558 35.5034 36.3098 35.4703 36.343C35.3921 36.4215 35.3067 36.5009 35.2165 36.5783C35.2004 36.5921 35.1808 36.5989 35.1611 36.5989ZM26.2602 36.5425C26.2214 36.5425 26.1865 36.516 26.1775 36.4764C26.1506 36.3591 26.1342 36.2411 26.129 36.1253C26.1269 36.0785 26.1631 36.0386 26.21 36.0367C26.2569 36.031 26.2967 36.0706 26.2987 36.1176C26.3036 36.2231 26.3185 36.3312 26.3431 36.4386C26.3535 36.4842 26.3251 36.5298 26.2793 36.5403C26.2729 36.5418 26.2665 36.5425 26.2602 36.5425ZM37.6846 36.3245C37.6048 36.3245 37.5265 36.3211 37.4497 36.3144C37.403 36.3104 37.3684 36.2691 37.3725 36.2225C37.3766 36.1758 37.4187 36.1431 37.4645 36.1453C37.5709 36.1545 37.6804 36.1568 37.7929 36.1524C37.8412 36.156 37.8794 36.1871 37.8812 36.234C37.8831 36.2808 37.8466 36.3203 37.7997 36.3223C37.7609 36.3237 37.7226 36.3245 37.6846 36.3245ZM38.1342 36.2889C38.0928 36.2889 38.0567 36.2587 38.0503 36.2166C38.0433 36.1701 38.0753 36.127 38.1217 36.12C38.2344 36.1031 38.343 36.0805 38.4442 36.0531C38.4894 36.0413 38.5361 36.0676 38.5484 36.1129C38.5607 36.1581 38.5338 36.2047 38.4886 36.217C38.3811 36.2462 38.2661 36.27 38.1469 36.2878C38.1426 36.2886 38.1384 36.2889 38.1342 36.2889ZM37.1218 36.264C37.1158 36.264 37.1097 36.2633 37.1036 36.262C36.9902 36.2371 36.8769 36.2044 36.7669 36.1645C36.7228 36.1485 36.7 36.0999 36.7159 36.0559C36.7319 36.0116 36.7806 35.989 36.8248 36.0049C36.9278 36.0422 37.0338 36.0729 37.14 36.0961C37.1858 36.1061 37.2148 36.1513 37.2048 36.1973C37.196 36.237 37.1609 36.264 37.1218 36.264ZM35.6383 36.117C35.6193 36.117 35.6002 36.1107 35.5843 36.0976C35.5482 36.0677 35.5431 36.0142 35.5729 35.978C35.6452 35.8906 35.7109 35.8011 35.7685 35.7124C35.7939 35.6731 35.8465 35.6623 35.886 35.6874C35.9253 35.7129 35.9366 35.7655 35.911 35.805C35.8499 35.899 35.7803 35.9936 35.7039 36.0861C35.687 36.1065 35.6628 36.117 35.6383 36.117ZM31.478 36.1134C31.4761 36.1134 31.4742 36.1134 31.4722 36.1132C31.4254 36.1101 31.39 36.0696 31.3931 36.0228C31.3966 35.9717 31.3983 35.9211 31.3983 35.8709C31.3983 35.8118 31.396 35.7534 31.3915 35.6957C31.3879 35.649 31.4228 35.608 31.4696 35.6045C31.5169 35.5975 31.5572 35.6359 31.5608 35.6824C31.5656 35.7445 31.5681 35.8075 31.5681 35.8709C31.5681 35.9248 31.5663 35.9793 31.5626 36.0341C31.5596 36.0791 31.5223 36.1134 31.478 36.1134ZM38.7863 36.1079C38.7538 36.1079 38.7226 36.089 38.7087 36.0572C38.6896 36.0144 38.709 35.9642 38.752 35.9453C38.8545 35.8998 38.9491 35.8469 39.0332 35.788C39.0717 35.7608 39.1246 35.7705 39.1515 35.8088C39.1785 35.8472 39.1692 35.9002 39.1308 35.9271C39.0377 35.9924 38.9333 36.0508 38.8207 36.1006C38.8095 36.1056 38.7978 36.1079 38.7863 36.1079ZM36.4847 36.0338C36.4716 36.0338 36.4583 36.0308 36.4459 36.0244C36.3437 35.9716 36.2426 35.9114 36.1454 35.8452C36.1066 35.8188 36.0966 35.766 36.1229 35.7272C36.1494 35.6884 36.2023 35.6784 36.241 35.7048C36.3325 35.767 36.4277 35.8238 36.5237 35.8734C36.5654 35.895 36.5818 35.9461 36.5603 35.9878C36.5452 36.017 36.5155 36.0338 36.4847 36.0338ZM30.8712 36.0034C30.8433 36.0034 30.816 35.9897 30.7998 35.9646C30.7362 35.8661 30.6771 35.7652 30.6241 35.6649C30.6022 35.6234 30.6181 35.572 30.6596 35.5501C30.7012 35.5282 30.7525 35.5441 30.7743 35.5856C30.825 35.6817 30.8816 35.7783 30.9424 35.8724C30.9679 35.9119 30.9565 35.9645 30.9172 35.9899C30.903 35.9991 30.887 36.0034 30.8712 36.0034ZM26.2323 35.8678C26.2278 35.8678 26.2232 35.8675 26.2186 35.8667C26.1723 35.8592 26.1409 35.8156 26.1484 35.7693C26.1683 35.6468 26.2019 35.5303 26.2485 35.4235C26.2673 35.3807 26.3173 35.361 26.3603 35.3797C26.4034 35.3985 26.423 35.4485 26.4043 35.4915C26.3633 35.5852 26.3336 35.6879 26.316 35.7966C26.3092 35.8381 26.2732 35.8678 26.2323 35.8678ZM39.3352 35.7177C39.3151 35.7177 39.2951 35.7107 39.2789 35.6963C39.2437 35.6651 39.2406 35.6116 39.2717 35.5764C39.3419 35.4972 39.4025 35.4092 39.4515 35.3145C39.473 35.2729 39.5245 35.2559 39.566 35.2783C39.6077 35.2999 39.6239 35.3511 39.6023 35.3927C39.5468 35.4997 39.4783 35.5994 39.3988 35.6891C39.382 35.7081 39.3586 35.7177 39.3352 35.7177ZM35.9249 35.6518C35.9051 35.6518 35.8852 35.6448 35.8691 35.6308C35.7824 35.5551 35.6984 35.4726 35.6198 35.3858C35.5883 35.351 35.5909 35.2974 35.6257 35.2659C35.6604 35.2344 35.714 35.237 35.7457 35.2717C35.8015 35.3334 35.8603 35.3928 35.9208 35.4489C35.9221 35.4413 35.9243 35.4336 35.9277 35.4262C35.9748 35.3249 36.0122 35.2225 36.039 35.1216C36.0512 35.0763 36.0986 35.0494 36.143 35.0614C36.1883 35.0735 36.2153 35.12 36.2033 35.1654C36.1739 35.2756 36.133 35.3875 36.0818 35.4978C36.0679 35.5278 36.0385 35.5459 36.0075 35.5468C36.0138 35.5727 36.0078 35.6011 35.9889 35.6226C35.9722 35.6419 35.9485 35.6518 35.9249 35.6518ZM31.4248 35.4384C31.3861 35.4384 31.3512 35.4118 31.3421 35.3725C31.3169 35.2635 31.2837 35.1593 31.2434 35.0629C31.2253 35.0196 31.2457 34.97 31.289 34.9519C31.3323 34.9338 31.382 34.9542 31.4002 34.9975C31.4441 35.1026 31.4803 35.2159 31.5076 35.3344C31.5181 35.38 31.4897 35.4256 31.444 35.4363C31.4375 35.4377 31.431 35.4384 31.4248 35.4384ZM30.5551 35.4022C30.5214 35.4022 30.4897 35.3821 30.4763 35.3492C30.4287 35.2315 30.3917 35.1191 30.3663 35.0145C30.3552 34.9689 30.3832 34.923 30.4287 34.9118C30.4741 34.9014 30.5202 34.9287 30.5314 34.9744C30.5548 35.0709 30.5893 35.1754 30.6337 35.2854C30.6513 35.3289 30.6304 35.3783 30.5869 35.3961C30.5764 35.4003 30.5657 35.4022 30.5551 35.4022ZM26.5058 35.2556C26.486 35.2556 26.4662 35.2488 26.4501 35.2349C26.4147 35.2042 26.4109 35.1505 26.4416 35.1151C26.5223 35.0221 26.6172 34.9436 26.7236 34.8817C26.7639 34.858 26.8158 34.8718 26.8395 34.9126C26.8632 34.953 26.8493 35.0051 26.8088 35.0287C26.7186 35.0809 26.6383 35.1474 26.57 35.2262C26.5531 35.2456 26.5295 35.2556 26.5058 35.2556ZM35.4701 35.1487C35.4434 35.1487 35.4172 35.1363 35.4007 35.1129C35.3316 35.0154 35.2697 34.9149 35.2167 34.814C35.1948 34.7726 35.2108 34.7211 35.2524 34.6994C35.2941 34.6773 35.3451 34.6937 35.3671 34.7351C35.4166 34.8293 35.4744 34.9233 35.5392 35.0147C35.5664 35.053 35.5573 35.1059 35.519 35.1332C35.5041 35.1437 35.487 35.1487 35.4701 35.1487ZM39.6475 35.1219C39.6404 35.1219 39.6333 35.1211 39.6262 35.1193C39.5807 35.1075 39.5534 35.0612 39.5652 35.0158C39.5912 34.915 39.6082 34.8074 39.6154 34.6963C39.6185 34.6495 39.657 34.6123 39.7057 34.6169C39.7525 34.6199 39.788 34.6604 39.785 34.7072C39.777 34.8289 39.7585 34.947 39.7297 35.0582C39.7198 35.0965 39.6852 35.1219 39.6475 35.1219ZM27.081 34.9173C27.0424 34.9173 27.0075 34.8908 26.9984 34.8516C26.9877 34.8059 27.0161 34.7602 27.0619 34.7495C27.1707 34.7242 27.2883 34.7114 27.4115 34.7114C27.4584 34.7114 27.4997 34.7493 27.4997 34.7963C27.4997 34.8432 27.4649 34.8812 27.418 34.8812C27.3013 34.8812 27.1966 34.8926 27.1004 34.915C27.0938 34.9165 27.0874 34.9173 27.081 34.9173ZM36.1743 34.8936C36.173 34.8936 36.1717 34.8936 36.1704 34.8935C36.1235 34.8913 36.0873 34.8516 36.0894 34.8047C36.0904 34.7828 36.091 34.7612 36.091 34.74C36.0909 34.6535 36.0823 34.5688 36.0656 34.4882C36.0561 34.4422 36.0856 34.3973 36.1316 34.3878C36.1773 34.3769 36.2223 34.4078 36.232 34.4537C36.2511 34.5456 36.2608 34.642 36.2608 34.74C36.2608 34.7639 36.2603 34.7881 36.2591 34.8127C36.2569 34.8582 36.2194 34.8936 36.1743 34.8936ZM31.159 34.8175C31.1325 34.8175 31.1063 34.805 31.0898 34.7818C31.0231 34.6881 30.9502 34.6153 30.8734 34.5652C30.8342 34.5395 30.8231 34.4869 30.8487 34.4475C30.8745 34.4084 30.9271 34.3976 30.9664 34.4229C31.061 34.4847 31.1491 34.5723 31.2281 34.6833C31.2554 34.7215 31.2465 34.7745 31.2082 34.8018C31.1933 34.8124 31.176 34.8175 31.159 34.8175ZM30.4132 34.7429C30.4108 34.7429 30.4082 34.7427 30.4058 34.7425C30.359 34.7386 30.3244 34.6974 30.3285 34.6507C30.3506 34.396 30.4997 34.3366 30.5867 34.3238C30.6332 34.3179 30.6762 34.3492 30.683 34.3957C30.6898 34.4421 30.6577 34.4853 30.6112 34.4921C30.5865 34.4955 30.5114 34.5067 30.4977 34.6653C30.4938 34.7096 30.4567 34.7429 30.4132 34.7429ZM35.1585 34.5471C35.1227 34.5471 35.0894 34.5242 35.0777 34.4884C35.0358 34.3592 35.0134 34.2389 35.0113 34.1309C35.0104 34.0841 35.0476 34.0453 35.0944 34.0443C35.1397 34.0421 35.1802 34.0806 35.1811 34.1275C35.1829 34.2188 35.2026 34.3226 35.2393 34.4359C35.2538 34.4805 35.2294 34.5284 35.1848 34.5429C35.176 34.5458 35.1671 34.5471 35.1585 34.5471ZM39.6948 34.447C39.6514 34.447 39.6144 34.414 39.6103 34.3699C39.5928 34.1806 39.5556 34.0531 39.5553 34.0517C39.542 34.0068 39.5678 33.9595 39.6127 33.9463C39.6577 33.933 39.7049 33.9587 39.7182 34.0037C39.7199 34.0093 39.7603 34.1471 39.7796 34.3544C39.7839 34.401 39.7495 34.4425 39.7029 34.4467C39.7002 34.4468 39.6975 34.447 39.6948 34.447ZM36.0328 34.2381C36.0029 34.2381 35.9738 34.2222 35.9583 34.1942C35.906 34.0991 35.8412 34.019 35.7657 33.9558C35.7297 33.9256 35.725 33.872 35.7551 33.836C35.7851 33.8 35.8388 33.7954 35.8747 33.8254C35.9664 33.9022 36.0446 33.9988 36.1071 34.1122C36.1298 34.1533 36.1147 34.2049 36.0737 34.2275C36.0606 34.2348 36.0466 34.2381 36.0328 34.2381ZM35.1984 33.9006C35.1758 33.9006 35.1533 33.8916 35.1367 33.8741C35.1044 33.8399 35.106 33.7861 35.14 33.754C35.1851 33.7113 35.2404 33.6819 35.3044 33.6665C35.3773 33.6491 35.4555 33.6469 35.5324 33.6599C35.5787 33.6677 35.6098 33.7116 35.602 33.7579C35.5941 33.804 35.5498 33.8353 35.504 33.8274C35.4498 33.8183 35.3948 33.8194 35.3441 33.8317C35.3088 33.8401 35.2802 33.855 35.2567 33.8773C35.2404 33.8929 35.2194 33.9006 35.1984 33.9006Z" fill="#261D2A"/>
</svg>
