<svg width="20" height="20" viewBox="0 0 20 20" fill="none" xmlns="http://www.w3.org/2000/svg">
<g clip-path="url(#clip0_663_3164)">
<path d="M17.7981 5.21563L17.7919 5.22266L12.5005 10.8727V15.2078C12.5008 15.414 12.4501 15.617 12.3529 15.7989C12.2557 15.9807 12.115 16.1357 11.9434 16.25L9.44344 17.9172C9.25504 18.0427 9.0361 18.1147 8.80999 18.1254C8.58388 18.1362 8.35909 18.0854 8.15961 17.9784C7.96013 17.8714 7.79345 17.7122 7.67736 17.5179C7.56127 17.3236 7.50013 17.1014 7.50047 16.875V10.8727L2.20906 5.22266L2.20281 5.21563C2.04011 5.03657 1.93287 4.81416 1.89409 4.57536C1.85531 4.33656 1.88667 4.09163 1.98435 3.8703C2.08203 3.64897 2.24184 3.46074 2.44439 3.32844C2.64695 3.19615 2.88354 3.12548 3.12547 3.125H16.8755C17.1176 3.12502 17.3545 3.19537 17.5574 3.32749C17.7603 3.4596 17.9205 3.64781 18.0185 3.86923C18.1164 4.09065 18.148 4.33576 18.1093 4.57478C18.0706 4.81379 17.9633 5.03643 17.8005 5.21563H17.7981Z" fill="#E07A5F"/>
</g>
<defs>
<clipPath id="clip0_663_3164">
<rect width="20" height="20" fill="white"/>
</clipPath>
</defs>
</svg>
