<svg width="40" height="40" viewBox="0 0 40 40" fill="none" xmlns="http://www.w3.org/2000/svg">
<g clip-path="url(#clip0_663_2107)">
<path d="M20 40C31.0457 40 40 31.0457 40 20C40 8.95431 31.0457 0 20 0C8.95431 0 0 8.95431 0 20C0 31.0457 8.95431 40 20 40Z" fill="#FFE165"/>
<path d="M19.9998 36.9275C29.3486 36.9275 36.9273 29.3488 36.9273 20C36.9273 10.6512 29.3486 3.07245 19.9998 3.07245C10.651 3.07245 3.07227 10.6512 3.07227 20C3.07227 29.3488 10.651 36.9275 19.9998 36.9275Z" fill="#FFCA1A"/>
<path d="M40.0002 20C40.0002 25.3043 37.893 30.3914 34.1423 34.1421C30.3916 37.8929 25.3045 40 20.0002 40C19.6693 40 19.3408 39.9923 19.0146 39.9768C24.1422 39.7236 28.9761 37.5084 32.5156 33.7897C36.0551 30.0711 38.0292 25.1338 38.0292 20C38.0292 14.8662 36.0551 9.9289 32.5156 6.21027C28.9761 2.49165 24.1422 0.276425 19.0146 0.0231884C19.3416 0.00772947 19.6701 0 20.0002 0C25.3045 0 30.3916 2.10714 34.1423 5.85786C37.893 9.60859 40.0002 14.6957 40.0002 20Z" fill="#FED94D"/>
<path d="M36.9277 20C36.9277 24.4894 35.1443 28.795 31.9697 31.9696C28.7952 35.1441 24.4896 36.9275 20.0002 36.9275C19.6697 36.9275 19.3404 36.9182 19.0146 36.8985C23.3253 36.646 27.3765 34.7556 30.3391 31.6142C33.3018 28.4728 34.952 24.318 34.952 20C34.952 15.6819 33.3018 11.5271 30.3391 8.38577C27.3765 5.24441 23.3253 3.35402 19.0146 3.10143C19.3404 3.08172 19.6697 3.07245 20.0002 3.07245C24.4896 3.07245 28.7952 4.85588 31.9697 8.03041C35.1443 11.2049 36.9277 15.5105 36.9277 20Z" fill="#FEC200"/>
<path d="M26.257 12.662C26.1057 12.6617 25.9605 12.6022 25.8524 12.4962C25.0408 11.6974 23.7225 11.3275 22.635 11.5977C22.5583 11.6273 22.4762 11.6402 22.3941 11.6356C22.312 11.631 22.2318 11.609 22.1588 11.5711C22.0859 11.5331 22.0219 11.4801 21.971 11.4155C21.9201 11.3509 21.8836 11.2763 21.8637 11.1964C21.8439 11.1166 21.8413 11.0335 21.8561 10.9527C21.8709 10.8718 21.9027 10.795 21.9494 10.7273C21.9962 10.6597 22.0568 10.6027 22.1272 10.5603C22.1976 10.5178 22.2763 10.4909 22.3579 10.4812C23.8373 10.1136 25.566 10.5971 26.6605 11.6788C26.7395 11.7599 26.7931 11.8622 26.8146 11.9733C26.8361 12.0844 26.8247 12.1993 26.7817 12.304C26.7386 12.4086 26.6659 12.4984 26.5725 12.5622C26.4791 12.6261 26.369 12.6612 26.2559 12.6632L26.257 12.662Z" fill="black"/>
<path d="M5.39504 12.662C5.28174 12.6607 5.17133 12.6262 5.07745 12.5627C4.98357 12.4993 4.91033 12.4098 4.86678 12.3052C4.82324 12.2006 4.81131 12.0855 4.83245 11.9742C4.8536 11.8629 4.90689 11.7602 4.98576 11.6789C6.08025 10.596 7.81011 10.1136 9.28837 10.4812C9.37164 10.4885 9.45235 10.5137 9.52497 10.5551C9.59759 10.5965 9.6604 10.6531 9.70908 10.721C9.75777 10.789 9.79119 10.8666 9.80704 10.9487C9.8229 11.0308 9.82082 11.1153 9.80094 11.1965C9.78107 11.2777 9.74387 11.3536 9.6919 11.4191C9.63992 11.4846 9.57441 11.538 9.49984 11.5758C9.42527 11.6136 9.34342 11.6348 9.25989 11.638C9.17636 11.6411 9.09313 11.6262 9.01591 11.5942C7.92837 11.3276 6.60895 11.6974 5.79735 12.4962C5.69028 12.6023 5.54573 12.6619 5.39504 12.662Z" fill="black"/>
<path d="M15.8259 29.6406C14.8775 29.6406 13.9848 29.3948 13.3123 28.9449C12.5007 28.4081 12.0566 27.6035 12.0566 26.6794C12.0744 26.5395 12.1427 26.4108 12.2485 26.3176C12.3544 26.2244 12.4906 26.1729 12.6317 26.1729C12.7728 26.1729 12.909 26.2244 13.0149 26.3176C13.1207 26.4108 13.189 26.5395 13.2068 26.6794C13.2068 27.9212 14.5645 28.4858 15.8259 28.4858C17.0874 28.4858 18.445 27.92 18.445 26.6794C18.4347 26.5978 18.4418 26.5149 18.4659 26.4362C18.4901 26.3575 18.5307 26.2849 18.5851 26.2231C18.6395 26.1613 18.7064 26.1119 18.7814 26.078C18.8564 26.0441 18.9378 26.0266 19.0201 26.0266C19.1024 26.0266 19.1838 26.0441 19.2588 26.078C19.3338 26.1119 19.4007 26.1613 19.4551 26.2231C19.5095 26.2849 19.5502 26.3575 19.5743 26.4362C19.5985 26.5149 19.6056 26.5978 19.5952 26.6794C19.594 28.625 17.6995 29.6406 15.8259 29.6406Z" fill="black"/>
<path d="M20.4171 14.0359C18.6571 14.0359 16.8623 15.513 16.8623 17.5861C16.8623 19.2939 17.7724 20.5623 18.7174 21.5977C19.5413 22.4981 20.4533 23.3138 21.4397 24.0325C22.1353 24.5171 22.8751 24.5171 23.5382 24.0325C24.5247 23.3138 25.4367 22.4981 26.2606 21.5977C27.2055 20.5623 28.1156 19.2939 28.1156 17.5861C28.1156 15.513 26.3197 14.0371 24.5597 14.0359C24.1755 14.0332 23.7947 14.1073 23.4396 14.2541C23.0846 14.4009 22.7625 14.6172 22.4924 14.8904C22.2214 14.6162 21.898 14.3993 21.5415 14.2525C21.185 14.1057 20.8026 14.0321 20.4171 14.0359Z" fill="#E07A5F"/>
<path d="M17.7391 17.8991C17.708 17.8993 17.677 17.897 17.6463 17.8922C17.4962 17.8669 17.362 17.7835 17.2729 17.66C17.1837 17.5366 17.1467 17.383 17.1698 17.2325C17.4342 15.5942 18.793 14.3722 20.3292 14.3722H20.3698C20.5097 14.391 20.6379 14.4601 20.7304 14.5666C20.8229 14.6731 20.8734 14.8098 20.8724 14.9508C20.8714 15.0919 20.819 15.2278 20.725 15.333C20.631 15.4382 20.5018 15.5055 20.3617 15.5223H20.3292C19.3634 15.5223 18.4742 16.349 18.3049 17.4157C18.2823 17.5498 18.2133 17.6718 18.1098 17.7602C18.0064 17.8486 17.8751 17.8978 17.7391 17.8991Z" fill="white"/>
<path d="M7.09091 14.0359C5.33323 14.0359 3.53613 15.5131 3.53613 17.5849C3.53613 19.2928 4.44628 20.5612 5.3912 21.5965C6.21509 22.497 7.12708 23.3126 8.11352 24.0313C8.80917 24.5159 9.54888 24.5159 10.2121 24.0313C11.1985 23.3126 12.1105 22.497 12.9344 21.5965C13.8793 20.5612 14.7895 19.2928 14.7895 17.5849C14.7895 15.5119 12.9935 14.0359 11.2335 14.0348C10.8481 14.0312 10.4659 14.1051 10.1096 14.2521C9.75328 14.3991 9.43013 14.6162 9.15932 14.8904C8.88909 14.6171 8.56684 14.4006 8.21159 14.2539C7.85633 14.1071 7.47528 14.033 7.09091 14.0359Z" fill="#E07A5F"/>
<path d="M4.41878 17.8992C4.38773 17.8993 4.35671 17.897 4.32603 17.8922C4.17587 17.8669 4.04171 17.7835 3.95255 17.66C3.86338 17.5366 3.82637 17.383 3.84951 17.2325C4.11385 15.5942 5.46806 14.3768 7.00893 14.3768H7.04951C7.20103 14.3802 7.34523 14.4427 7.4512 14.5511C7.55718 14.6594 7.6165 14.805 7.61646 14.9565C7.61648 15.0321 7.60141 15.1069 7.57212 15.1765C7.54283 15.2461 7.49993 15.3092 7.44592 15.362C7.39192 15.4148 7.3279 15.4563 7.25764 15.4841C7.18737 15.5118 7.11227 15.5252 7.03675 15.5235C6.05472 15.5061 5.16197 16.342 4.98806 17.4168C4.96513 17.5514 4.89546 17.6735 4.79133 17.7617C4.68719 17.85 4.55527 17.8986 4.41878 17.8992Z" fill="white"/>
</g>
<defs>
<clipPath id="clip0_663_2107">
<rect width="40" height="40" fill="white"/>
</clipPath>
</defs>
</svg>
