<svg width="28" height="28" viewBox="0 0 28 28" fill="none" xmlns="http://www.w3.org/2000/svg">
<path d="M25.1428 8.11906C24.9197 6.8875 23.8566 5.99062 22.6228 5.71062C20.7766 5.31906 17.3597 5.03906 13.6628 5.03906C9.96813 5.03906 6.49656 5.31906 4.64813 5.71062C3.41656 5.99062 2.35125 6.83062 2.12812 8.11906C1.90281 9.51906 1.67969 11.4791 1.67969 13.9991C1.67969 16.5191 1.90281 18.4791 2.18281 19.8791C2.40812 21.1106 3.47125 22.0075 4.70281 22.2875C6.66281 22.6791 10.0228 22.9591 13.7197 22.9591C17.4166 22.9591 20.7766 22.6791 22.7366 22.2875C23.9681 22.0075 25.0313 21.1675 25.2566 19.8791C25.4797 18.4791 25.7597 16.4622 25.8166 13.9991C25.7028 11.4791 25.4228 9.51906 25.1428 8.11906ZM10.6397 17.9191V10.0791L17.4713 13.9991L10.6397 17.9191Z" fill="#E07A5F"/>
</svg>
