<svg width="28" height="28" viewBox="0 0 28 28" fill="none" xmlns="http://www.w3.org/2000/svg">
<path d="M22.9602 2.23828H5.04023C3.49463 2.23828 2.24023 3.49268 2.24023 5.03828V22.9583C2.24023 24.5039 3.49463 25.7583 5.04023 25.7583H22.9602C24.5058 25.7583 25.7602 24.5039 25.7602 22.9583V5.03828C25.7602 3.49268 24.5058 2.23828 22.9602 2.23828ZM9.52023 11.1983V21.8383H6.16023V11.1983H9.52023ZM6.16023 8.10148C6.16023 7.31748 6.83223 6.71828 7.84023 6.71828C8.84823 6.71828 9.48103 7.31748 9.52023 8.10148C9.52023 8.88548 8.89303 9.51828 7.84023 9.51828C6.83223 9.51828 6.16023 8.88548 6.16023 8.10148ZM21.8402 21.8383H18.4802C18.4802 21.8383 18.4802 16.6527 18.4802 16.2383C18.4802 15.1183 17.9202 13.9983 16.5202 13.9759H16.4754C15.1202 13.9759 14.5602 15.1295 14.5602 16.2383C14.5602 16.7479 14.5602 21.8383 14.5602 21.8383H11.2002V11.1983H14.5602V12.6319C14.5602 12.6319 15.641 11.1983 17.8138 11.1983C20.037 11.1983 21.8402 12.7271 21.8402 15.8239V21.8383Z" fill="#E07A5F"/>
</svg>
