<svg width="28" height="28" viewBox="0 0 28 28" fill="none" xmlns="http://www.w3.org/2000/svg">
<path d="M9.44128 3.0625C5.92422 3.0625 3.0625 5.92591 3.0625 9.44385V18.5579C3.0625 22.0754 5.92591 24.9375 9.44385 24.9375H18.5579C22.0754 24.9375 24.9375 22.0741 24.9375 18.5562V9.44128C24.9375 5.92422 22.0741 3.0625 18.5562 3.0625H9.44128ZM20.5625 6.5625C21.0455 6.5625 21.4375 6.9545 21.4375 7.4375C21.4375 7.9205 21.0455 8.3125 20.5625 8.3125C20.0795 8.3125 19.6875 7.9205 19.6875 7.4375C19.6875 6.9545 20.0795 6.5625 20.5625 6.5625ZM14 8.3125C17.1369 8.3125 19.6875 10.8631 19.6875 14C19.6875 17.1369 17.1364 19.6875 14 19.6875C10.8631 19.6875 8.3125 17.1364 8.3125 14C8.3125 10.8636 10.8631 8.3125 14 8.3125ZM14 10.0625C11.8252 10.0625 10.0625 11.8252 10.0625 14C10.0625 16.1748 11.8252 17.9375 14 17.9375C16.1748 17.9375 17.9375 16.1748 17.9375 14C17.9375 11.8252 16.1748 10.0625 14 10.0625Z" fill="#E07A5F"/>
</svg>
