<svg width="175" height="178" viewBox="0 0 175 178" fill="none" xmlns="http://www.w3.org/2000/svg">
<path fill-rule="evenodd" clip-rule="evenodd" d="M227.576 35.7964L226.922 37.7845L226.165 39.7577L225.305 41.7119L224.345 43.6432L223.285 45.5478L222.13 47.4218L220.881 49.2617L219.543 51.0637L218.119 52.8247L216.614 54.5415L215.032 56.2112L213.379 57.831L211.66 59.3987L209.883 60.9123L208.053 62.37L206.179 63.7707L204.269 65.1137L202.334 66.399L200.384 67.627L198.431 68.7992L196.49 69.918L194.575 70.9867L192.7 72.0096L190.882 72.9917L189.134 73.9391L187.471 74.8585L185.906 75.7575L184.45 76.644L183.114 77.5264L181.908 78.4136L180.838 79.3143L179.912 80.2375L179.131 81.1919L178.5 82.186L178.016 83.2277L177.68 84.3247L177.488 85.4836L177.434 86.7104L177.511 88.0101L177.712 89.3867L178.026 90.8433L178.442 92.3816L178.948 94.0022L179.531 95.7046L180.177 97.4867L180.871 99.3457L181.599 101.277L182.344 103.276L183.093 105.335L183.831 107.447L184.541 109.605L185.211 111.797L185.827 114.015L186.375 116.248L186.845 118.484L187.225 120.713L187.506 122.924L187.68 125.104L187.739 127.242L187.678 129.327L187.493 131.35L187.181 133.299L186.74 135.165L186.171 136.94L185.474 138.616L184.653 140.186L183.71 141.646L182.65 142.99L181.479 144.215L180.204 145.319L178.832 146.301L177.371 147.162L175.829 147.903L174.215 148.526L172.537 149.035L170.805 149.433L169.028 149.727L167.213 149.923L165.371 150.025L163.508 150.042L161.632 149.981L159.75 149.849L157.87 149.653L155.995 149.402L154.133 149.103L152.288 148.763L150.464 148.39L148.664 147.991L146.892 147.575L145.15 147.148L143.441 146.718L141.768 146.296L140.132 145.892L138.535 145.516L136.979 145.179L135.465 144.892L133.991 144.666L132.558 144.511L131.163 144.436L129.805 144.45L128.48 144.562L127.185 144.777L125.916 145.1L124.667 145.535L123.434 146.085L122.212 146.751L120.993 147.531L119.773 148.423L118.546 149.423L117.306 150.526L116.046 151.724L114.763 153.01L113.45 154.373L112.104 155.802L110.72 157.287L109.296 158.812L107.829 160.366L106.317 161.933L104.759 163.499L103.155 165.049L101.505 166.568L99.8119 168.041L98.077 169.453L96.3037 170.79L94.4958 172.037L92.6578 173.183L90.7948 174.215L88.9126 175.122L87.0173 175.895L85.1155 176.524L83.2139 177.002L81.3197 177.324L79.4398 177.485L77.5814 177.481L75.7514 177.312L73.9568 176.977L72.204 176.477L70.4991 175.815L68.8479 174.994L67.2556 174.019L65.727 172.897L64.2661 171.633L62.8764 170.237L61.5609 168.715L60.3217 167.078L59.1606 165.334L58.0786 163.493L57.0761 161.565L56.1532 159.559L55.3091 157.485L54.5429 155.353L53.8531 153.172L53.2377 150.952L52.6944 148.7L52.2206 146.427L51.8129 144.139L51.4677 141.847L51.1809 139.557L50.9472 137.278L50.7612 135.02L50.6167 132.79L50.508 130.594L50.4298 128.439L50.3769 126.328L50.3442 124.267L50.3269 122.257L50.3203 120.302L50.3199 118.403L50.321 116.563L50.3192 114.782L50.3101 113.06L50.2895 111.4L50.2531 109.8L50.197 108.261L50.1174 106.782L50.0105 105.362L49.873 104L49.7019 102.694L49.4942 101.443L49.2477 100.243L48.9601 99.0925L48.63 97.9886L48.2561 96.9281L47.8377 95.9076L47.3744 94.9236L46.8664 93.9722L46.3143 93.0496L45.7193 92.1519L45.0827 91.2751L44.4065 90.4152L43.6929 89.5683L42.9444 88.7305L42.164 87.8981L41.3546 87.0675L40.5196 86.2355L39.6624 85.3988L38.7863 84.5545L37.8948 83.7002L36.9913 82.8333L36.0792 81.9518L35.1614 81.054L34.2409 80.1384L33.3203 79.2038L32.402 78.2492L31.4878 77.2739L30.5794 76.2773L29.6779 75.2593L28.7842 74.2195L27.8986 73.158L27.0211 72.0749L26.1511 70.9702L25.2878 69.8439L24.4302 68.6964L23.5766 67.5275L22.7253 66.3373L21.8745 65.1256L21.0219 63.8922L20.1655 62.6367L19.3032 61.3586L18.4329 60.0571L17.5528 58.7314L16.6616 57.3806L15.7579 56.0036L14.8414 54.5991L13.9121 53.1661L12.9707 51.7032L12.0191 50.2095L11.0597 48.684L10.0964 47.1259L9.1343 45.5348L8.17962 43.9107L7.24015 42.2544L6.32491 40.567L5.44378 38.8504L4.60703 37.1073L3.82501 35.3408L3.10782 33.5547L2.46506 31.7534L1.90559 29.9416L1.43737 28.1244L1.06733 26.3072L0.801287 24.4953L0.643844 22.6943L0.598392 20.9097L0.667082 19.1468L0.85085 17.4108L1.14945 15.7063L1.56152 14.0379L2.08462 12.4094L2.71536 10.8245L3.44946 9.28614L4.28184 7.79666L5.20675 6.35793L6.21787 4.9712L7.30841 3.63715L8.47122 2.35584L9.69891 1.12679L10.9839 -0.0510303L12.3187 -1.17916L13.6957 -2.25961L15.1074 -3.29481L16.5468 -4.28757L18.007 -5.24104L19.4813 -6.15861L20.9638 -7.04389L22.4487 -7.90062L23.931 -8.73264L25.4061 -9.5438L26.87 -10.3379L28.3194 -11.1186L29.7515 -11.8895L31.164 -12.6539L32.5553 -13.4148L33.9246 -14.1749L35.2713 -14.9367L36.5955 -15.7019L37.8979 -16.4722L39.1794 -17.2487L40.4415 -18.0318L41.6861 -18.8217L42.9153 -19.618L44.1315 -20.4198L45.3374 -21.2258L46.5355 -22.0342L47.7289 -22.8427L48.9202 -23.6489L50.1123 -24.4496L51.3079 -25.2418L52.5096 -26.022L53.7198 -26.7866L54.9405 -27.5319L56.1735 -28.2543L57.4205 -28.9502L58.6826 -29.6159L59.9607 -30.2484L61.2551 -30.8446L62.566 -31.4019L63.8931 -31.9181L65.2359 -32.3914L66.5933 -32.8208L67.9643 -33.2053L69.3475 -33.5447L70.7415 -33.8384L72.1453 -34.0855L73.5577 -34.2851L74.9777 -34.4356L76.4043 -34.5354L77.8365 -34.5827L79.2731 -34.5756L80.7129 -34.5119L82.1547 -34.3899L83.597 -34.2074L85.0382 -33.9631L86.4767 -33.6554L87.9105 -33.2834L89.3375 -32.8466L90.7557 -32.345L92.1629 -31.7792L93.5566 -31.1506L94.9347 -30.4609L96.2947 -29.713L97.6345 -28.9102L98.952 -28.0567L100.245 -27.1572L101.512 -26.2172L102.752 -25.2431L103.963 -24.2414L105.145 -23.2194L106.297 -22.1849L107.419 -21.1459L108.511 -20.1107L109.575 -19.0877L110.613 -18.0854L111.625 -17.1122L112.614 -16.1764L113.582 -15.2858L114.534 -14.4481L115.473 -13.6702L116.401 -12.9587L117.324 -12.3192L118.246 -11.7569L119.172 -11.2758L120.105 -10.8794L121.051 -10.57L122.015 -10.3493L123.001 -10.2176L124.014 -10.1748L125.057 -10.2194L126.135 -10.3495L127.252 -10.562L128.412 -10.8531L129.616 -11.2186L130.868 -11.6534L132.171 -12.1518L133.525 -12.7079L134.933 -13.3153L136.395 -13.9674L137.911 -14.6574L139.483 -15.3784L141.109 -16.1236L142.79 -16.886L144.525 -17.659L146.311 -18.4358L148.149 -19.2099L150.035 -19.9751L151.968 -20.725L153.945 -21.4534L155.964 -22.1541L158.021 -22.8205L160.111 -23.4461L162.231 -24.0237L164.373 -24.5458L166.533 -25.0053L168.703 -25.3959L170.878 -25.7119L173.051 -25.9487L175.217 -26.1022L177.369 -26.1698L179.504 -26.1494L181.616 -26.0399L183.701 -25.8412L185.756 -25.5538L187.777 -25.1787L189.762 -24.718L191.708 -24.1737L193.615 -23.5486L195.481 -22.8458L197.305 -22.0682L199.088 -21.2194L200.827 -20.3026L202.525 -19.3211L204.18 -18.2782L205.794 -17.1771L207.366 -16.0206L208.896 -14.8114L210.384 -13.5521L211.831 -12.2449L213.235 -10.8917L214.597 -9.49454L215.915 -8.05483L217.187 -6.57397L218.412 -5.05321L219.589 -3.49364L220.714 -1.89629L221.786 -0.262088L222.801 1.40799L223.756 3.11299L224.648 4.85186L225.473 6.62349L226.229 8.42657L226.91 10.2597L227.514 12.1213L228.037 14.0094L228.474 15.9222L228.824 17.8573L229.082 19.8121L229.246 21.7841L229.313 23.7703L229.28 25.7674L229.147 27.7723L228.91 29.7813L228.57 31.7908L228.125 33.7972L227.576 35.7964Z" fill="#A4BE7B"/>
</svg>
