<svg width="36" height="36" viewBox="0 0 36 36" fill="none" xmlns="http://www.w3.org/2000/svg">
<path d="M32.2674 22.4146C30.2249 22.5421 27.5378 24.6099 24.9454 25.7989C21.7701 27.2539 16.8248 26.0835 16.8243 26.0835C17.5861 25.7218 20.6856 24.9739 21.3104 24.6944C24.6288 23.2173 24.3489 20.1341 22.7684 20.1601C20.6788 20.1956 19.4545 20.7148 15.2879 21.2901C12.1299 21.7249 8.39499 21.5659 6.60326 22.2587C4.07425 23.2374 0 29.82 0 29.82L6.29851 36.0001C6.29851 36.0001 10.1969 32.1121 12.0937 32.1121C16.4159 32.1121 16.5913 32.052 20.606 31.8324C22.3113 31.74 22.6688 31.669 23.645 31.3339C28.8474 29.5538 34.4341 24.8088 34.5369 24.2379C34.7758 22.9164 33.3484 22.3466 32.2674 22.4146Z" fill="#A4BE7B"/>
<path d="M23.5754 12.8495C23.6837 12.8719 23.7939 12.8234 23.8525 12.7286C25.2994 10.367 27.4843 7.5101 30.3334 5.56857C27.678 8.15145 25.8028 10.8703 24.6661 13.4297C24.632 13.5066 24.6358 13.5949 24.676 13.6686C24.7165 13.7423 24.7886 13.7925 24.8711 13.804C25.0566 13.8295 25.2493 13.8427 25.4433 13.8427C27.263 13.8427 29.0756 12.7196 30.2754 11.7776C31.6457 10.7019 32.9616 9.2805 33.7958 7.97456C35.0471 6.01584 35.8295 3.60184 35.999 1.17671C36.0045 1.09955 35.9766 1.02385 35.9225 0.968856C35.8683 0.914157 35.7933 0.88544 35.7172 0.891398C33.9043 1.02141 29.4058 1.61069 26.7751 4.26995C26.6832 4.35396 25.7147 5.25659 24.814 6.69938C23.5794 8.67773 23.079 10.7276 23.3676 12.6281C23.3841 12.7389 23.4669 12.8272 23.5754 12.8495Z" fill="#A4BE7B"/>
<path d="M16.3811 15.6817C17.5248 16.5796 19.2522 17.6497 20.9865 17.6497C21.1715 17.6497 21.3551 17.6375 21.5316 17.6127C21.6103 17.6018 21.6791 17.554 21.7175 17.484C21.7559 17.4139 21.7594 17.3296 21.7272 17.2563C20.644 14.8171 18.8568 12.2259 16.3257 9.76426C19.0412 11.6148 21.1237 14.3376 22.5025 16.5882C22.5582 16.6786 22.6637 16.7245 22.7667 16.7033C22.8697 16.6817 22.949 16.5978 22.9651 16.4924C23.2395 14.6813 22.763 12.7275 21.5863 10.8423C20.728 9.46703 19.8044 8.60728 19.717 8.52689C17.2102 5.99275 12.9228 5.43091 11.1949 5.30716C11.1225 5.30139 11.0508 5.32865 10.9994 5.3809C10.9479 5.43306 10.9212 5.50554 10.9264 5.57909C11.0881 7.89023 11.8336 10.1908 13.0261 12.0573C13.8211 13.302 15.0754 14.6566 16.3811 15.6817Z" fill="#A4BE7B"/>
<path d="M18.853 6.91086C19.6149 7.50865 20.7654 8.22159 21.9205 8.22159C22.0436 8.22159 22.1661 8.21309 22.2838 8.19678C22.3364 8.18955 22.3821 8.15781 22.4075 8.11122C22.4332 8.06414 22.4356 8.00826 22.4138 7.95923C21.6924 6.33437 20.5023 4.60881 18.8165 2.96929C20.6249 4.20159 22.0119 6.01545 22.9305 7.51421C22.9675 7.57428 23.0379 7.60525 23.1064 7.59089C23.175 7.57663 23.2278 7.52076 23.2385 7.45043C23.4212 6.24412 23.1039 4.94286 22.3203 3.68712C21.7486 2.7714 21.1334 2.19852 21.0753 2.14509C19.4054 0.457135 16.5499 0.0830319 15.3991 0.00049464C15.3506 -0.00331477 15.3031 0.0150485 15.2687 0.0497239C15.2344 0.0843993 15.2167 0.13275 15.2202 0.181686C15.3277 1.72118 15.8243 3.25344 16.6186 4.49657C17.1481 5.32566 17.9836 6.2278 18.853 6.91086Z" fill="#A4BE7B"/>
</svg>
