<svg width="36" height="36" viewBox="0 0 36 36" fill="none" xmlns="http://www.w3.org/2000/svg">
<g clip-path="url(#clip0_1063_64)">
<path d="M24.7263 12.1175C21.257 14.2278 20.8679 18.7525 21.0062 21.6177C23.6449 18.5159 26.8963 16.8723 28.7529 16.5624C25.7676 17.7319 23.5183 20.0606 21.6475 22.6317C20.8927 23.9546 20.1981 25.249 19.804 26.6778C19.3734 25.0047 18.6385 23.4404 17.8457 21.8419C15.6189 18.3721 12.882 15.188 9.10634 13.4487C11.4859 13.99 15.5716 16.363 18.7522 20.5777C19.1485 16.8795 18.9852 10.9924 14.6546 7.9994C9.88977 4.7067 3.8752 3.58327 0.904828 3.21334C0.229868 3.12935 -0.239289 3.86999 0.129453 4.44161C1.10203 5.94942 2.4229 8.63402 2.61773 12.3004C2.81169 15.9649 3.0366 22.736 16.1207 23.7475C18.0642 27.2992 19.0213 29.1928 19.3751 32.5868C19.402 32.8443 19.7659 32.8686 19.8276 32.6171C20.0684 31.6343 20.7018 26.6915 22.89 24.1765C33.0101 23.9854 33.487 18.7822 33.8018 15.9696C34.0896 13.3891 35.0697 11.4869 35.8599 10.3275C36.2382 9.77269 35.8022 9.02605 35.1327 9.07934C32.7194 9.27148 28.3362 9.92237 24.7263 12.1175Z" fill="#A4BE7B"/>
</g>
<defs>
<clipPath id="clip0_1063_64">
<rect width="36" height="36" fill="white"/>
</clipPath>
</defs>
</svg>
