<svg width="14" height="14" viewBox="0 0 14 14" fill="none" xmlns="http://www.w3.org/2000/svg">
<path d="M6.75 9.93752C6.82556 9.98071 6.91109 10.0034 6.99813 10.0034C7.08516 10.0034 7.17069 9.98071 7.24625 9.93752C7.39937 9.84939 10.9963 7.75001 10.9963 4.00314C10.9648 2.96395 10.53 1.97782 9.784 1.25372C9.03796 0.529614 8.0393 0.12443 6.99964 0.124024C5.95998 0.123617 4.961 0.528021 4.2144 1.25154C3.4678 1.97506 3.03223 2.96085 3 4.00001C3 7.75001 6.59875 9.84626 6.75 9.93752ZM7 2.50001C7.29667 2.50001 7.58668 2.58799 7.83335 2.75281C8.08003 2.91763 8.27229 3.1519 8.38582 3.42599C8.49935 3.70008 8.52906 4.00168 8.47118 4.29265C8.4133 4.58362 8.27044 4.85089 8.06066 5.06067C7.85088 5.27045 7.58361 5.41331 7.29264 5.47119C7.00166 5.52907 6.70006 5.49936 6.42597 5.38583C6.15189 5.2723 5.91762 5.08004 5.7528 4.83337C5.58797 4.58669 5.5 4.29668 5.5 4.00001C5.5 3.60219 5.65804 3.22066 5.93934 2.93935C6.22064 2.65805 6.60218 2.50001 7 2.50001ZM14 10.5C14 12.4488 10.3931 13.5 7 13.5C3.60687 13.5 0 12.4488 0 10.5C0 9.58814 0.82625 8.78064 2.32687 8.22689C2.44994 8.18623 2.58398 8.19495 2.70074 8.2512C2.8175 8.30745 2.90785 8.40685 2.95275 8.52842C2.99766 8.65 2.9936 8.78426 2.94143 8.9029C2.88926 9.02154 2.79307 9.1153 2.67313 9.16439C1.64125 9.54627 1 10.0575 1 10.5C1 11.335 3.2825 12.5 7 12.5C10.7175 12.5 13 11.335 13 10.5C13 10.0575 12.3587 9.54626 11.3269 9.16502C11.2069 9.11592 11.1107 9.02217 11.0586 8.90353C11.0064 8.78489 11.0023 8.65062 11.0472 8.52905C11.0921 8.40747 11.1825 8.30808 11.2993 8.25183C11.416 8.19558 11.5501 8.18686 11.6731 8.22751C13.1737 8.78064 14 9.58814 14 10.5Z" fill="#E07A5F"/>
</svg>
