<svg width="13" height="13" viewBox="0 0 13 13" fill="none" xmlns="http://www.w3.org/2000/svg">
<path d="M12.4925 9.94237C12.3811 10.7893 11.9651 11.5666 11.3224 12.1293C10.6797 12.6919 9.8542 13.0014 9 12.9999C4.03751 12.9999 5.6554e-06 8.96237 5.6554e-06 3.99987C-0.00152558 3.14568 0.307935 2.32014 0.870589 1.67743C1.43324 1.03473 2.21061 0.618815 3.05751 0.507374C3.27166 0.481224 3.48854 0.525037 3.67575 0.632273C3.86296 0.739508 4.01047 0.904414 4.09626 1.10237L5.41626 4.04925V4.05675C5.48193 4.20828 5.50906 4.37372 5.49521 4.5383C5.48136 4.70287 5.42696 4.86145 5.33688 4.99987C5.32563 5.01675 5.31376 5.03237 5.30126 5.048L4.00001 6.5905C4.46813 7.54175 5.46313 8.528 6.42688 8.99737L7.94813 7.703C7.96307 7.69044 7.97872 7.67876 7.99501 7.668C8.13331 7.57575 8.29244 7.51944 8.45798 7.50416C8.62353 7.48889 8.79027 7.51512 8.94313 7.5805L8.95125 7.58425L11.8956 8.90362C12.0939 8.98911 12.2592 9.13649 12.3668 9.32372C12.4744 9.51096 12.5185 9.728 12.4925 9.94237Z" fill="#E07A5F"/>
</svg>
