<svg width="15" height="12" viewBox="0 0 15 12" fill="none" xmlns="http://www.w3.org/2000/svg">
<path d="M14.7447 1.61816L5.51669 11.7214C5.43632 11.8097 5.34082 11.8798 5.23566 11.9276C5.1305 11.9754 5.01776 12 4.90389 12C4.79003 12 4.67729 11.9754 4.57213 11.9276C4.46697 11.8798 4.37147 11.8097 4.29109 11.7214L0.25383 7.30124C0.173356 7.21314 0.10952 7.10854 0.0659682 6.99342C0.022416 6.8783 1.19916e-09 6.75492 0 6.63032C-1.19915e-09 6.50572 0.022416 6.38234 0.0659682 6.26722C0.10952 6.15211 0.173356 6.04751 0.25383 5.9594C0.334304 5.8713 0.42984 5.80141 0.534984 5.75373C0.640128 5.70604 0.752822 5.6815 0.866629 5.6815C0.980436 5.6815 1.09313 5.70604 1.19827 5.75373C1.30342 5.80141 1.39895 5.8713 1.47943 5.9594L4.90461 9.70945L13.5206 0.277904C13.6831 0.0999648 13.9035 0 14.1334 0C14.3632 0 14.5836 0.0999648 14.7462 0.277904C14.9087 0.455842 15 0.697179 15 0.948823C15 1.20047 14.9087 1.4418 14.7462 1.61974L14.7447 1.61816Z" fill="white"/>
</svg>
