<svg width="36" height="36" viewBox="0 0 36 36" fill="none" xmlns="http://www.w3.org/2000/svg">
<path d="M0.187068 11.6149L2.4406 13.4473L0.319597 17.6756C-0.740873 19.6253 1.08095 21.5246 2.24171 22.1858C3.38442 22.8366 5.15801 22.914 6.81501 22.8906L9.7976 17.8165L12.0511 19.085L8.1406 11.5445L0.187068 11.6149ZM0.518421 21.9655L5.35683 31.2678C6.32895 32.5598 8.16271 32.8652 10.0627 32.8182H15.1662V24.0092L5.48942 23.9388C3.98713 24.0326 2.02077 23.7038 0.518421 21.9655ZM30.9594 4.82239L28.3269 5.98517L25.8014 2.00485C24.677 0.0943934 22.1973 0.831727 21.079 1.56771C19.978 2.29225 19.0531 3.86903 18.2695 5.38856L21.0879 10.5632L18.9293 11.9993L27.1626 12.0958L30.9594 4.82239ZM22.0995 0.106024L11.9357 0C10.3785 0.258388 9.23283 1.77933 8.35119 3.53155L5.87695 8.17666L13.2805 12.4474L18.0312 3.67387C18.6805 2.26085 19.9102 0.630636 22.0995 0.106024ZM22.5417 36L22.8406 33.0402L27.4103 32.6714C29.5611 32.574 30.1435 29.9597 30.0672 28.585C29.9921 27.2316 29.1152 25.6254 28.2179 24.1755L22.5025 24.2321L22.342 21.5711L18.2694 29.0181L22.5417 36ZM30.8009 30.2226L35.8175 21.0232C36.3553 19.4806 35.6325 17.7004 34.5872 16.0485L31.8828 11.5445L24.7041 16.2125L29.7747 24.79C30.6474 26.066 31.4214 27.9755 30.8009 30.2226Z" fill="#A4BE7B"/>
</svg>
