<svg width="34" height="34" viewBox="0 0 34 34" fill="none" xmlns="http://www.w3.org/2000/svg">
<path d="M26.4371 12.1331C26.5161 12.2123 26.5604 12.3196 26.5604 12.4314C26.5604 12.5432 26.5161 12.6505 26.4371 12.7297L25.7013 13.4655C25.6221 13.5445 25.5148 13.5888 25.403 13.5888C25.2912 13.5888 25.1839 13.5445 25.1047 13.4655L21.216 9.5769H14.8567C14.7679 9.57808 14.6811 9.55004 14.6098 9.49709L13.6517 8.80564C13.6245 8.78616 13.6024 8.76048 13.5871 8.73074C13.5719 8.701 13.5639 8.66804 13.5639 8.63461C13.5639 8.60117 13.5719 8.56821 13.5871 8.53847C13.6024 8.50873 13.6245 8.48305 13.6517 8.46357L14.6098 7.77212C14.6811 7.71917 14.7679 7.69113 14.8567 7.69231H21.6062C21.7314 7.69216 21.8555 7.71706 21.971 7.76556C22.0865 7.81405 22.1911 7.88516 22.2787 7.97469L26.4371 12.1331ZM33.875 17C33.875 26.3198 26.3198 33.875 17 33.875C7.68022 33.875 0.125 26.3198 0.125 17C0.125 7.68022 7.68022 0.125 17 0.125C26.3198 0.125 33.875 7.68022 33.875 17ZM25.5589 27.7679L6.23213 8.44114C4.29366 10.8723 3.24013 13.8907 3.24477 17C3.24477 24.5968 9.40316 30.7552 17 30.7552C20.1093 30.7599 23.1277 29.7063 25.5589 27.7679ZM30.7553 17C30.7553 9.40316 24.5968 3.2447 17 3.2447C13.8906 3.23999 10.8722 4.29356 8.44114 6.23213L27.7679 25.5589C29.7064 23.1278 30.76 20.1094 30.7553 17ZM23.1162 19.5151V15.968H19.5691L23.1162 19.5151ZM12.7886 27.4091H22.625C22.7551 27.4088 22.8798 27.357 22.9718 27.265C23.0638 27.173 23.1157 27.0483 23.116 26.9181V26.7172L20.8627 24.4639H18.41C18.2795 24.4639 18.1543 24.412 18.062 24.3197C17.9697 24.2274 17.9179 24.1022 17.9179 23.9717V21.519L12.2976 15.8986V26.9181C12.2979 27.0483 12.3497 27.173 12.4418 27.265C12.5338 27.357 12.6585 27.4088 12.7886 27.4091ZM15.6133 5.85547H17.2147V6.70829H18.1991V5.85547H19.8005C19.9311 5.85547 20.0563 5.80361 20.1486 5.71131C20.2409 5.61901 20.2927 5.49382 20.2927 5.36328C20.2927 5.23275 20.2409 5.10756 20.1486 5.01525C20.0563 4.92295 19.9311 4.87109 19.8005 4.87109H15.6133C15.4828 4.87109 15.3576 4.92295 15.2653 5.01525C15.173 5.10756 15.1211 5.23275 15.1211 5.36328C15.1211 5.49382 15.173 5.61901 15.2653 5.71131C15.3576 5.80361 15.4828 5.85547 15.6133 5.85547ZM19.6789 12.0385V10.5613H15.7349V12.0385C15.7035 12.0385 15.6721 12.039 15.6409 12.0399L18.5848 14.9836H23.0807C22.9607 14.1666 22.5513 13.4197 21.9269 12.8792C21.3025 12.3386 20.5048 12.0403 19.6789 12.0385ZM18.9022 22.5033V23.4796H19.8785L18.9022 22.5033Z" fill="#E07A5F"/>
</svg>
