<svg version="1.2" xmlns="http://www.w3.org/2000/svg" viewBox="0 0 511 499" width="511" height="499">
	<title>download</title>
	<defs>
		<clipPath clipPathUnits="userSpaceOnUse" id="cp1">
			<path d="m0 0h511v499h-511z"/>
		</clipPath>
	</defs>
	<style>
		.s0 { fill: #a4be7b } 
		.s1 { fill: #e07a5f } 
	</style>
	<g id="Clip-Path" clip-path="url(#cp1)">
		<g>
			<path fill-rule="evenodd" class="s0" d="m352.9 76.1c83.8-21.5 160.7 73.1 193 153.2 25.4 63-38.1 119.8-56.7 185-16.2 57 3.1 125.7-42.6 163.5-57.7 47.7-136.3 63.1-208.8 44.6-97.1-24.8-242.7-58.6-237.7-158.6 5.3-105 182.9-81.9 253.7-159.7 58.7-64.5 14.6-206.4 99.1-228z"/>
			<path fill-rule="evenodd" class="s1" d="m596 361.3l0.2 1.7 0.2 1.7 0.2 1.7 0.1 1.7 0.1 1.7 0.1 1.8 0.1 1.7v1.7 1.7 1.7l-0.1 1.7-0.1 1.8-0.2 1.7-0.1 1.7-0.2 1.7-0.2 1.7-0.3 1.7-0.3 1.7-0.3 1.7-0.3 1.7-0.4 1.7-0.4 1.6-0.4 1.7-0.4 1.7-0.5 1.6-0.5 1.7-0.5 1.6-0.6 1.7-0.6 1.6-0.5 1.6-0.7 1.6-0.6 1.6-0.6 1.6-0.7 1.6-0.7 1.6-0.7 1.6-0.7 1.5-0.7 1.6-0.7 1.5-0.8 1.6-0.8 1.5-0.7 1.6-0.8 1.5-0.8 1.5-0.8 1.6-0.8 1.5-0.9 1.5-0.8 1.5-0.8 1.5-0.9 1.5-0.8 1.5-0.9 1.5-0.9 1.5-0.9 1.5-0.9 1.5-0.9 1.5-0.9 1.5-0.9 1.5-0.9 1.5-0.9 1.5-1 1.5-0.9 1.5-1 1.5-0.9 1.5-1 1.5-1 1.5-1 1.5-1 1.5-1 1.5-1 1.5-1 1.6-1 1.5-1.1 1.5-1 1.5-1.1 1.5-1.1 1.6-1.1 1.5-1.1 1.5-1.1 1.6-1.2 1.5-1.1 1.5-1.2 1.6-1.2 1.5-1.2 1.5-1.2 1.6-1.2 1.5-1.3 1.5-1.2 1.5-1.3 1.5-1.4 1.6-1.3 1.5-1.3 1.5-1.4 1.5-1.4 1.5-1.4 1.5-1.4 1.4-1.5 1.5-1.5 1.5-1.5 1.4-1.5 1.4-1.5 1.5-1.6 1.4-1.6 1.4-1.6 1.4-1.6 1.4-1.7 1.4-1.6 1.4-1.7 1.3-1.8 1.4-1.7 1.3-1.7 1.4-1.8 1.3-1.8 1.3-1.9 1.3-1.8 1.3-1.9 1.3-1.8 1.3-2 1.2-1.9 1.3-1.9 1.2-2 1.3-2 1.2-2 1.2-2.1 1.3-2 1.2-2.1 1.2-2.1 1.2-2.2 1.1-2.1 1.2-2.2 1.2-2.2 1.1-2.2 1.1-2.3 1.2-2.2 1.1-2.3 1.1-2.4 1.1-2.3 1-2.4 1.1-2.4 1-2.4 1-2.5 1-2.4 0.9-2.5 1-2.6 0.9-2.5 0.9-2.6 0.8-2.6 0.9-2.6 0.8-2.6 0.7-2.7 0.7-2.6 0.7-2.7 0.7-2.8 0.6-2.7 0.6-2.8 0.6-2.7 0.5-2.8 0.4-2.8 0.5-2.8 0.4-2.9 0.3-2.8 0.3-2.9 0.2-2.9 0.3-2.8 0.1-2.9 0.1-2.9 0.1h-2.9-3l-2.9-0.1-2.9-0.2-2.9-0.2-3-0.2-2.9-0.3-2.9-0.3-2.9-0.5-3-0.4-2.9-0.5-2.9-0.6-2.9-0.6-2.9-0.7-2.9-0.7-2.8-0.8-2.9-0.9-2.8-0.9-2.9-1-2.8-1-2.7-1.1-2.8-1.1-2.8-1.2-2.7-1.3-2.7-1.3-2.6-1.3-2.7-1.5-2.6-1.5-2.5-1.5-2.6-1.6-2.5-1.7-2.4-1.7-2.4-1.7-2.4-1.9-2.4-1.8-2.3-2-2.2-2-2.2-2-2.1-2.1-2.1-2.1-2.1-2.2-2-2.3-1.9-2.3-1.9-2.3-1.8-2.4-1.7-2.4-1.7-2.5-1.6-2.5-1.6-2.6-1.5-2.6-1.5-2.6-1.3-2.7-1.3-2.7-1.3-2.8-1.1-2.7-1.1-2.8-1-2.9-1-2.8-0.9-2.9-0.8-2.9-0.7-2.9-0.7-3-0.6-2.9-0.5-3-0.4-3-0.4-3-0.3-3-0.2-3-0.2-3.1-0.1-3v-3l0.1-3 0.1-3.1 0.2-3 0.2-3 0.4-3 0.4-3 0.4-3 0.6-3 0.5-2.9 0.7-3 0.7-2.9 0.7-2.9 0.9-2.9 0.8-2.8 1-2.9 0.9-2.8 1-2.8 1.1-2.7 1.1-2.8 1.2-2.7 1.2-2.6 1.2-2.7 1.2-2.6 1.3-2.5 1.4-2.6 1.3-2.5 1.4-2.4 1.4-2.5 1.4-2.3 1.5-2.4 1.4-2.3 1.5-2.3 1.5-2.3 1.5-2.2 1.5-2.2 1.5-2.1 1.6-2.1 1.5-2.1 1.5-2 1.5-2 1.6-2 1.5-2 1.5-1.9 1.5-1.9 1.5-1.8 1.5-1.8 1.5-1.8 1.5-1.8 1.5-1.8 1.4-1.7 1.4-1.7 1.5-1.6 1.4-1.7 1.4-1.6 1.3-1.6 1.4-1.6 1.3-1.6 1.4-1.5 1.3-1.6 1.3-1.5 1.2-1.5 1.3-1.5 1.2-1.5 1.3-1.5 1.2-1.4 1.2-1.5 1.2-1.4 1.1-1.5 1.2-1.4 1.1-1.4 1.1-1.4 1.2-1.4 1.1-1.4 1.1-1.4 1-1.4 1.1-1.4 1.1-1.3 1-1.4 1.1-1.4 1-1.4 1.1-1.3 1-1.4 1-1.4 1-1.3 1.1-1.4 1-1.3 1-1.4 1-1.4 1-1.3 1-1.4 1.1-1.3 1-1.4 1-1.3 1-1.3 1.1-1.4 1-1.3 1.1-1.3 1.1-1.3 1-1.3 1.1-1.3 1.1-1.3 1.2-1.3 1.1-1.3 1.2-1.2 1.1-1.2 1.2-1.3 1.2-1.2 1.3-1.1 1.2-1.2 1.3-1.1 1.2-1.2 1.4-1.1 1.3-1 1.3-1.1 1.4-1 1.4-0.9 1.4-1 1.5-0.9 1.4-0.9 1.5-0.8 1.5-0.9 1.5-0.7 1.5-0.8 1.6-0.7 1.6-0.6 1.5-0.7 1.6-0.5 1.7-0.6 1.6-0.5 1.6-0.5 1.7-0.4 1.6-0.4 1.7-0.3 1.7-0.3 1.7-0.3 1.7-0.2 1.7-0.2 1.7-0.2 1.7-0.1 1.7-0.1 1.7-0.1h1.7 1.6 1.7l1.7 0.1h1.7l1.7 0.1 1.6 0.1 1.7 0.1 1.6 0.2 1.6 0.1 1.7 0.2 1.6 0.1 1.6 0.2 1.6 0.2 1.5 0.1 1.6 0.2 1.6 0.2 1.5 0.1 1.5 0.2 1.6 0.1 1.5 0.2 1.5 0.1 1.5 0.1 1.5 0.1 1.5 0.1h1.5l1.5 0.1h1.5 1.4 1.5 1.5 1.5 1.5l1.5-0.1 1.5-0.1h1.4l1.5-0.1 1.6-0.1 1.5-0.1 1.5-0.2 1.5-0.1 1.5-0.1 1.6-0.1 1.5-0.1 1.6-0.2 1.6-0.1 1.5-0.1 1.6-0.1 1.6-0.1 1.6-0.1 1.6-0.1h1.6l1.7-0.1h1.6 1.6 1.7 1.6l1.6 0.1 1.7 0.1 1.6 0.1 1.7 0.2 1.6 0.2 1.7 0.2 1.6 0.2 1.6 0.3 1.7 0.3 1.6 0.4 1.6 0.4 1.6 0.4 1.6 0.5 1.6 0.5 1.5 0.6 1.6 0.6 1.5 0.6 1.5 0.7 1.5 0.7 1.5 0.8 1.4 0.8 1.4 0.8 1.4 0.9 1.4 0.9 1.4 0.9 1.3 1 1.3 1 1.3 1.1 1.2 1.1 1.3 1.1 1.2 1.1 1.1 1.2 1.2 1.2 1.1 1.2 1.1 1.2 1.1 1.3 1 1.3 1 1.3 1 1.3 1 1.3 0.9 1.4 0.9 1.3 0.9 1.4 0.9 1.4 0.9 1.4 0.8 1.4 0.8 1.4 0.9 1.4 0.8 1.4 0.7 1.4 0.8 1.4 0.8 1.4 0.7 1.4 0.8 1.4 0.7 1.4 0.8 1.4 0.7 1.4 0.8 1.4 0.7 1.4 0.7 1.4 0.8 1.4 0.7 1.4 0.7 1.3 0.8 1.4 0.7 1.4 0.8 1.3 0.7 1.4 0.8 1.4 0.7 1.3 0.8 1.4 0.8 1.4 0.7 1.3 0.8 1.4 0.8 1.4 0.7 1.4 0.8 1.3 0.8 1.4 0.7 1.4 0.8 1.4 0.8 1.4 0.8 1.4 0.7 1.4 0.8 1.5 0.7 1.4 0.8 1.4 0.7 1.5 0.8 1.5 0.7 1.4 0.7 1.5 0.7 1.5 0.7 1.5 0.7 1.6 0.6 1.5 0.7 1.5 0.6 1.6 0.6 1.6 0.6 1.5 0.5 1.6 0.6 1.6 0.5 1.6 0.5 1.7 0.4 1.6 0.4 1.6 0.5 1.7 0.3 1.6 0.4 1.7 0.3 1.7 0.3 1.7z"/>
		</g>
	</g>
</svg>