<svg width="36" height="36" viewBox="0 0 36 36" fill="none" xmlns="http://www.w3.org/2000/svg">
<g clip-path="url(#clip0_104_6314)">
<path d="M9.87388 23.1428C10.6455 23.1442 11.3437 22.6855 11.6488 21.9767L12.5038 19.9781C12.8297 19.2194 13.4345 18.6149 14.1932 18.2893L16.4291 17.3314C16.9928 17.0907 17.358 16.5364 17.3567 15.9236C17.3585 15.5712 17.2355 15.2296 17.0096 14.9593C16.7849 14.6842 16.4715 14.4958 16.1231 14.4263C14.9726 14.1885 14.1461 13.177 14.1425 12.0021V10.9607C9.06038 12.735 5.88744 17.7954 6.50402 23.1428H9.87388Z" fill="#E07A5F"/>
<path d="M21.8565 16.7144C21.8518 18.2922 22.5773 19.7834 23.8217 20.7534C24.6054 21.3627 25.0659 22.2981 25.0708 23.2908V24.9494C25.0601 25.2198 25.1959 25.4751 25.4263 25.6173C25.7103 25.7789 26.067 25.7327 26.3005 25.5042L29.5508 22.2545C29.5553 22.1214 29.5708 21.9909 29.5708 21.8572C29.5692 18.0065 27.6521 14.4089 24.4568 12.26C22.8572 13.1743 21.8662 14.8719 21.8565 16.7144Z" fill="#E07A5F"/>
<path d="M22.6315 29.4775C22.3755 29.1678 22.0039 28.9764 21.6031 28.9479C21.2023 28.9193 20.8074 29.0561 20.5101 29.3265C18.3911 31.3656 15.0395 31.3656 12.9205 29.3265C12.625 29.0576 12.2329 28.9204 11.8343 28.9462C11.4356 28.972 11.0645 29.1587 10.8061 29.4634L10.1279 30.312C14.0171 33.9589 19.9017 34.4577 24.3492 31.5173L22.6315 29.4775Z" fill="#E07A5F"/>
<path d="M27.2096 26.413C26.8351 26.7892 26.3261 27.0005 25.7953 27C25.4527 26.9992 25.1158 26.913 24.8149 26.7493C24.167 26.3842 23.7719 25.6928 23.7863 24.9493V23.2907C23.781 22.6917 23.5008 22.1284 23.0265 21.7626C21.4719 20.5496 20.5654 18.6861 20.5708 16.7143C20.5816 14.6686 21.5608 12.749 23.2103 11.5393C20.8112 10.3093 18.0533 9.97083 15.4279 10.584V12.0021C15.4302 12.5661 15.8271 13.0514 16.3793 13.1657C17.0172 13.2941 17.591 13.6393 18.0032 14.1428C18.4195 14.6425 18.6458 15.2732 18.6422 15.9235C18.644 17.0515 17.9716 18.0715 16.9341 18.5143L14.6976 19.4721C14.2433 19.6663 13.8812 20.028 13.6864 20.482L12.8301 22.4826C12.3227 23.6643 11.1597 24.4298 9.87363 24.4285H6.72363C7.14158 26.2587 8 27.9593 9.22435 29.3824L9.7997 28.6624C10.2775 28.0659 10.9841 27.6979 11.7467 27.6484C12.5094 27.5989 13.2576 27.8724 13.8086 28.402C15.4298 29.9628 17.9949 29.9628 19.6161 28.402C20.1197 27.9132 20.7946 27.6407 21.4965 27.6428C22.3237 27.6404 23.107 28.015 23.6243 28.6605L25.3858 30.7555C27.3709 29.1072 28.7486 26.8431 29.3001 24.3225L27.2096 26.413Z" fill="#E07A5F"/>
<path d="M23.0686 8.65286C22.3356 8.36229 21.855 7.65292 21.8569 6.86443V2.57143H20.5711C20.2161 2.57143 19.9283 2.28361 19.9283 1.92857C19.9283 1.57353 20.2161 1.28571 20.5711 1.28571H23.7854C24.1405 1.28571 24.4283 0.997897 24.4283 0.642857C24.4283 0.287817 24.1405 0 23.7854 0H12.214C11.859 0 11.5711 0.287817 11.5711 0.642857C11.5711 0.997897 11.859 1.28571 12.214 1.28571H17.9997C18.3548 1.28571 18.6426 1.57353 18.6426 1.92857C18.6426 2.28361 18.3548 2.57143 17.9997 2.57143H14.1426V6.86379C14.1453 7.65196 13.6653 8.36148 12.9327 8.65222C6.56846 11.095 2.85241 17.7302 4.0946 24.433C5.3368 31.1358 11.1837 35.9987 18.0007 35.9987C24.8176 35.9987 30.6645 31.1358 31.9067 24.433C33.1489 17.7302 29.4329 11.095 23.0686 8.65222V8.65286ZM17.9997 34.7143C10.8989 34.7143 5.14257 28.9579 5.14257 21.8571C5.14257 14.7563 10.8989 9 17.9997 9C25.1005 9 30.8569 14.7563 30.8569 21.8571C30.8487 28.9546 25.0971 34.7061 17.9997 34.7143Z" fill="#E07A5F"/>
</g>
<defs>
<clipPath id="clip0_104_6314">
<rect width="36" height="36" fill="white"/>
</clipPath>
</defs>
</svg>
