<svg width="36" height="36" viewBox="0 0 36 36" fill="none" xmlns="http://www.w3.org/2000/svg">
<path fill-rule="evenodd" clip-rule="evenodd" d="M6.10987 20.6879L5.52637 29.7614L17.6314 32.7869C19.5844 33.2759 21.6409 33.1259 23.5009 32.3594L34.0264 28.0259L33.6124 27.6119C32.4994 26.4974 30.8644 26.0864 29.3569 26.5379C26.8219 27.2984 23.5669 28.2749 23.5669 28.2749C23.4034 28.3244 22.7674 28.3109 22.6054 28.3109H20.9419C20.1124 28.3109 19.2904 28.1774 18.5044 27.9164C16.9759 27.4064 14.3224 26.5214 14.3224 26.5214C13.8739 26.3729 13.6309 25.8869 13.7809 25.4384C13.9309 24.9914 14.4154 24.7484 14.8639 24.8969C14.8639 24.8969 17.5174 25.7819 19.0459 26.2919C19.6579 26.4959 20.2969 26.5994 20.9419 26.5994H22.6054C23.4919 26.5994 24.2104 25.8794 24.2104 24.9929V24.9899C24.2104 24.2669 23.7184 23.6369 23.0179 23.4614L18.6064 22.3589C18.0604 22.2224 17.5324 22.0259 17.0284 21.7754L14.4409 20.4809C13.3174 19.9184 12.0439 19.7249 10.8019 19.9259L6.10987 20.6879Z" fill="#E07A5F"/>
<path fill-rule="evenodd" clip-rule="evenodd" d="M22.0514 22.6665C22.0514 22.6665 22.4864 19.767 23.8514 16.9395C24.7064 15.1665 25.9199 13.3965 27.6929 12.51C28.2494 12.2325 28.4744 11.556 28.1969 11.001C27.9194 10.4445 27.2429 10.2195 26.6864 10.497C24.4754 11.604 22.8914 13.7505 21.8249 15.9615C20.3069 19.1085 19.8269 22.3335 19.8269 22.3335C19.7354 22.9485 20.1584 23.5215 20.7734 23.613C21.3869 23.7045 21.9599 23.28 22.0514 22.6665Z" fill="#E07A5F"/>
<path fill-rule="evenodd" clip-rule="evenodd" d="M22.0577 22.6183C22.0577 22.6183 22.5377 18.0763 21.3422 13.6543C20.5007 10.5403 18.8267 7.51633 15.7382 5.97133C15.1832 5.69383 14.5067 5.92033 14.2292 6.47533C13.9517 7.03033 14.1767 7.70683 14.7317 7.98433C17.2232 9.22933 18.4907 11.7298 19.1702 14.2423C20.2562 18.2578 19.8212 22.3813 19.8212 22.3813C19.7552 22.9993 20.2037 23.5528 20.8217 23.6188C21.4382 23.6833 21.9932 23.2348 22.0577 22.6183Z" fill="#E07A5F"/>
<path fill-rule="evenodd" clip-rule="evenodd" d="M8.787 31.4023L10.128 20.6668C10.1955 20.1343 10.029 19.5973 9.6735 19.1938C9.318 18.7903 8.805 18.5593 8.268 18.5593H3.75C2.715 18.5593 1.875 19.3993 1.875 20.4343V31.1698C1.875 32.2048 2.715 33.0448 3.75 33.0448H6.9255C7.872 33.0448 8.6685 32.3413 8.787 31.4023Z" fill="#E07A5F"/>
<path fill-rule="evenodd" clip-rule="evenodd" d="M23.1567 16.3424C26.0322 13.0244 29.1927 9.63892 29.5377 10.3289C30.1857 11.6249 29.6592 13.2029 28.3647 13.8509C27.0657 14.5004 26.1627 15.7484 25.4787 17.0429C26.3967 17.1959 27.1812 17.1569 27.8487 16.9874C29.9562 16.4519 31.0767 14.6114 31.5507 12.5084C32.1627 9.79342 31.7097 6.71242 31.7097 6.71242C31.6197 6.11092 31.0692 5.68942 30.4647 5.76142C25.4157 6.35542 23.1597 8.10142 22.1922 9.82042C20.6037 12.6419 22.3227 15.7319 22.3227 15.7319C22.4397 15.9404 22.6212 16.1054 22.8387 16.2029C22.9467 16.2524 23.0517 16.2974 23.1567 16.3424Z" fill="#E07A5F"/>
<path fill-rule="evenodd" clip-rule="evenodd" d="M17.0028 12.5909C16.3833 11.2349 15.4713 10.0304 14.0613 9.32544C12.7653 8.67894 12.2403 7.09944 12.8868 5.80494C13.3653 4.84944 17.0403 8.39094 19.3203 11.7269C19.5813 11.5919 19.8498 11.4389 20.1243 11.2694C20.3283 11.1449 20.4873 10.9574 20.5788 10.7369C20.5788 10.7369 21.8928 7.45494 19.9608 4.85544C18.7833 3.27294 16.3248 1.82694 11.2398 1.87494C10.6323 1.88094 10.1388 2.36844 10.1268 2.97594C10.1268 2.97594 10.0653 6.08994 11.0163 8.70444C11.7528 10.7324 13.0968 12.4154 15.2553 12.6809C15.7773 12.7439 16.3593 12.7244 17.0028 12.5909Z" fill="#E07A5F"/>
</svg>
