<svg width="168" height="347" viewBox="0 0 168 347" fill="none" xmlns="http://www.w3.org/2000/svg">
<path fill-rule="evenodd" clip-rule="evenodd" d="M-150.588 39.9676L-147.49 39.005L-144.319 38.1865L-141.08 37.5144L-137.779 36.99L-134.423 36.6141L-131.02 36.387L-127.576 36.308L-124.099 36.3761L-120.597 36.5892L-117.078 36.9449L-113.55 37.4396L-110.02 38.0691L-106.498 38.8281L-102.991 39.7104L-99.5072 40.7084L-96.0561 41.8135L-92.6459 43.0152L-89.2855 44.3016L-85.984 45.6583L-82.7507 47.068L-79.5951 48.5113L-76.5262 49.9669L-73.552 51.412L-70.6794 52.8232L-67.9139 54.1766L-65.2597 55.4484L-62.7191 56.6154L-60.2926 57.6552L-57.9793 58.547L-55.7762 59.2712L-53.6788 59.8107L-51.6811 60.15L-49.7754 60.2765L-47.9531 60.1799L-46.204 59.8527L-44.5174 59.2904L-42.8814 58.4913L-41.284 57.4565L-39.7126 56.1902L-38.1546 54.6994L-36.5974 52.9937L-35.0288 51.0857L-33.437 48.9902L-31.8111 46.7242L-30.1408 44.3071L-28.417 41.7599L-26.6317 39.1053L-24.778 36.3673L-22.8506 33.5707L-20.8454 30.7415L-18.76 27.9056L-16.5934 25.0893L-14.3458 22.3187L-12.0193 19.6193L-9.61718 17.0157L-7.14401 14.5319L-4.60576 12.19L-2.00937 10.0109L0.637123 8.0136L3.32483 6.21513L6.04416 4.63035L8.78497 3.27194L11.5368 2.15009L14.289 1.27261L17.0307 0.644862L19.7514 0.269643L22.4407 0.147397L25.0889 0.276127L27.6867 0.651605L30.2256 1.26743L32.6978 2.11526L35.0967 3.18494L37.4165 4.46465L39.6525 5.94126L41.8011 7.60049L43.8597 9.42715L45.8269 11.4055L47.7023 13.5191L49.4864 15.7517L51.1807 18.0871L52.7876 20.5089L54.31 23.0018L55.7518 25.5505L57.1172 28.1409L58.4112 30.7593L59.639 33.3931L60.8062 36.0303L61.9192 38.6595L62.9843 41.2702L64.009 43.8519L65.0014 46.3938L65.9713 48.8845L66.9295 51.3119L67.8879 53.6643L68.8593 55.9304L69.857 58.0994L70.8945 60.162L71.9855 62.1099L73.1434 63.9367L74.3813 65.6373L75.7114 67.2086L77.1453 68.6494L78.6932 69.9604L80.3642 71.1441L82.1658 72.2051L84.1039 73.1496L86.1827 73.9856L88.4043 74.7227L90.7691 75.3719L93.2752 75.9456L95.919 76.4571L98.6945 76.9207L101.594 77.3513L104.607 77.7645L107.723 78.1757L110.928 78.6009L114.207 79.0553L117.544 79.5541L120.92 80.1118L124.318 80.7421L127.716 81.4576L131.096 82.27L134.436 83.1896L137.716 84.2253L140.915 85.3845L144.012 86.6733L146.988 88.0959L149.823 89.6551L152.5 91.3519L155.002 93.1859L157.313 95.155L159.42 97.2556L161.311 99.483L162.976 101.831L164.405 104.292L165.593 106.857L166.536 109.518L167.23 112.265L167.676 115.086L167.875 117.972L167.831 120.91L167.548 123.889L167.032 126.898L166.292 129.925L165.338 132.961L164.178 135.994L162.825 139.014L161.291 142.013L159.587 144.981L157.726 147.91L155.723 150.794L153.589 153.625L151.338 156.398L148.983 159.107L146.538 161.749L144.016 164.32L141.431 166.817L138.797 169.238L136.131 171.581L133.446 173.846L130.76 176.034L128.085 178.145L125.435 180.181L122.818 182.146L120.244 184.04L117.723 185.869L115.26 187.635L112.863 189.343L110.538 190.996L108.291 192.6L106.126 194.159L104.048 195.678L102.061 197.162L100.169 198.616L98.3727 200.046L96.6759 201.458L95.0795 202.856L93.5843 204.246L92.1904 205.634L90.897 207.023L89.7028 208.42L88.6055 209.829L87.6022 211.254L86.6895 212.7L85.8631 214.169L85.118 215.666L84.4488 217.192L83.8497 218.749L83.3143 220.341L82.8358 221.967L82.4072 223.629L82.0215 225.327L81.6713 227.06L81.3493 228.828L81.0485 230.629L80.7618 232.463L80.4826 234.328L80.2043 236.22L79.9209 238.14L79.6271 240.083L79.3176 242.048L78.9881 244.033L78.6346 246.035L78.2539 248.052L77.8433 250.082L77.4008 252.124L76.9248 254.177L76.4145 256.239L75.8695 258.311L75.2899 260.392L74.6762 262.483L74.0294 264.585L73.3506 266.698L72.6412 268.826L71.9028 270.97L71.137 273.133L70.3452 275.318L69.529 277.527L68.6896 279.764L67.8278 282.033L66.9442 284.335L66.0389 286.674L65.1117 289.052L64.1614 291.471L63.1865 293.932L62.1848 296.435L61.1534 298.979L60.0887 301.561L58.9863 304.177L57.8413 306.822L56.6481 309.486L55.4004 312.161L54.0917 314.833L52.7156 317.488L51.266 320.111L49.7379 322.685L48.1268 325.196L46.4297 327.627L44.6445 329.961L42.7706 332.186L40.8084 334.287L38.7597 336.251L36.6272 338.069L34.4149 339.731L32.1274 341.229L29.7705 342.559L27.3504 343.714L24.8739 344.694L22.3483 345.498L19.7809 346.128L17.1794 346.585L14.5515 346.873L11.9045 347L9.24586 346.971L6.58236 346.795L3.92056 346.479L1.2665 346.035L-1.37437 345.473L-3.99715 344.803L-6.59764 344.037L-9.17224 343.187L-11.7181 342.263L-14.2329 341.278L-16.7152 340.243L-19.1639 339.169L-21.5789 338.065L-23.9603 336.943L-26.3089 335.811L-28.6259 334.678L-30.913 333.551L-33.1721 332.438L-35.4055 331.343L-37.6154 330.271L-39.8046 329.227L-41.9754 328.213L-44.1306 327.23L-46.2725 326.28L-48.4035 325.361L-50.5255 324.472L-52.6403 323.612L-54.7493 322.777L-56.8537 321.964L-58.954 321.167L-61.0504 320.382L-63.1427 319.603L-65.2302 318.825L-67.3115 318.041L-69.3853 317.245L-71.4493 316.43L-73.5012 315.59L-75.5382 314.72L-77.5575 313.814L-79.5556 312.866L-81.5294 311.873L-83.4755 310.829L-85.3904 309.732L-87.2711 308.579L-89.1144 307.368L-90.9177 306.1L-92.6786 304.773L-94.3951 303.389L-96.0655 301.949L-97.6879 300.454L-99.2604 298.905L-100.781 297.302L-102.246 295.646L-103.653 293.936L-104.998 292.172L-106.279 290.353L-107.491 288.479L-108.632 286.55L-109.697 284.566L-110.682 282.528L-111.585 280.436L-112.403 278.293L-113.133 276.1L-113.773 273.859L-114.322 271.575L-114.779 269.252L-115.146 266.893L-115.423 264.504L-115.612 262.092L-115.718 259.663L-115.743 257.222L-115.694 254.778L-115.577 252.338L-115.4 249.91L-115.171 247.5L-114.899 245.117L-114.594 242.767L-114.268 240.457L-113.932 238.195L-113.598 235.985L-113.278 233.833L-112.984 231.744L-112.73 229.721L-112.527 227.767L-112.387 225.884L-112.323 224.073L-112.344 222.333L-112.462 220.664L-112.685 219.064L-113.023 217.53L-113.482 216.058L-114.069 214.643L-114.788 213.281L-115.643 211.965L-116.636 210.689L-117.768 209.445L-119.04 208.226L-120.448 207.026L-121.991 205.835L-123.664 204.645L-125.463 203.45L-127.381 202.242L-129.412 201.012L-131.548 199.754L-133.781 198.46L-136.102 197.126L-138.504 195.743L-140.975 194.308L-143.508 192.815L-146.093 191.259L-148.721 189.637L-151.38 187.945L-154.063 186.18L-156.758 184.34L-159.455 182.423L-162.143 180.427L-164.81 178.352L-167.442 176.197L-170.025 173.964L-172.544 171.652L-174.986 169.265L-177.337 166.805L-179.588 164.276L-181.726 161.682L-183.744 159.026L-185.635 156.314L-187.394 153.551L-189.015 150.742L-190.497 147.891L-191.838 145.004L-193.038 142.085L-194.099 139.14L-195.022 136.172L-195.81 133.186L-196.466 130.185L-196.994 127.174L-197.399 124.154L-197.684 121.13L-197.854 118.104L-197.912 115.078L-197.863 112.055L-197.71 109.037L-197.457 106.027L-197.106 103.026L-196.658 100.038L-196.117 97.0636L-195.482 94.1069L-194.755 91.1702L-193.935 88.2569L-193.022 85.3703L-192.016 82.5143L-190.915 79.693L-189.717 76.9109L-188.422 74.1728L-187.028 71.4838L-185.532 68.8494L-183.934 66.2753L-182.231 63.7674L-180.423 61.3318L-178.508 58.9748L-176.486 56.7028L-174.357 54.5219L-172.121 52.4386L-169.778 50.4589L-167.331 48.5888L-164.78 46.8341L-162.129 45.2002L-159.38 43.6922L-156.537 42.3147L-153.605 41.0719L-150.588 39.9676Z" fill="#A4BE7B"/>
</svg>
