<svg width="511" height="499" viewBox="0 0 511 499" fill="none" xmlns="http://www.w3.org/2000/svg">
<g clip-path="url(#clip0_1047_399)">
<path fill-rule="evenodd" clip-rule="evenodd" d="M327.156 22.8589C404.753 2.98808 476.087 90.6013 506.021 164.899C529.525 223.237 470.7 275.88 453.465 336.368C438.42 389.17 456.299 452.866 413.998 487.867C360.511 532.123 287.672 546.379 220.408 529.203C130.415 506.223 -4.54728 474.946 0.117772 382.183C5.01095 284.883 169.666 306.288 235.242 234.239C289.652 174.457 248.847 42.9121 327.156 22.8589Z" fill="#A4BE7B"/>
<path fill-rule="evenodd" clip-rule="evenodd" d="M559.97 348.338V348.338L560.205 350.03L560.409 351.727L560.584 353.429L560.728 355.135L560.842 356.844L560.925 358.556L560.978 360.27L561 361.985L560.991 363.702L560.952 365.419L560.882 367.136L560.781 368.852L560.649 370.566L560.487 372.279L560.294 373.989L560.071 375.695L559.819 377.398L559.536 379.097L559.225 380.791L558.885 382.48L558.517 384.163L558.122 385.84L557.7 387.511L557.251 389.175L556.777 390.832L556.279 392.482L555.756 394.124L555.211 395.759L554.643 397.386L554.055 399.006L553.446 400.617L552.817 402.222L552.17 403.818L551.506 405.407L550.825 406.989L550.129 408.564L549.417 410.132L548.691 411.693L547.953 413.249L547.201 414.798L546.438 416.341L545.663 417.88L544.878 419.413L544.082 420.942L543.277 422.466L542.462 423.986L541.637 425.502L540.804 427.015L539.961 428.524L539.11 430.03L538.251 431.534L537.383 433.036L536.507 434.536L535.624 436.034L534.732 437.531L533.834 439.027L532.927 440.523L532.013 442.018L531.091 443.514L530.162 445.01L529.225 446.507L528.28 448.004L527.327 449.503L526.366 451.004L525.397 452.506L524.42 454.011L523.433 455.517L522.438 457.025L521.433 458.536L520.418 460.05L519.393 461.565L518.357 463.083L517.31 464.603L516.252 466.126L515.182 467.65L514.099 469.177L513.004 470.705L511.895 472.234L510.772 473.765L509.634 475.297L508.482 476.829L507.314 478.361L506.13 479.893L504.929 481.424L503.711 482.953L502.476 484.481L501.222 486.007L499.95 487.529L498.659 489.048L497.349 490.563L496.019 492.073L494.668 493.577L493.297 495.075L491.906 496.567L490.493 498.051L489.058 499.528L487.603 500.996L486.126 502.456L484.627 503.907L483.106 505.349L481.564 506.781L480 508.203L478.414 509.616L476.807 511.019L475.178 512.412L473.527 513.794L471.855 515.167L470.161 516.529L468.445 517.882L466.709 519.225L464.951 520.557L463.171 521.881L461.37 523.195L459.548 524.499L457.704 525.794L455.839 527.08L453.953 528.357L452.044 529.626L450.115 530.886L448.163 532.137L446.189 533.379L444.194 534.613L442.176 535.839L440.136 537.055L438.073 538.263L435.987 539.462L433.879 540.652L431.747 541.832L429.592 543.003L427.413 544.163L425.21 545.311L422.983 546.448L420.731 547.573L418.456 548.684L416.155 549.78L413.83 550.861L411.481 551.924L409.106 552.97L406.707 553.996L404.283 555.002L401.834 555.985L399.361 556.946L396.864 557.882L394.343 558.792L391.799 559.676L389.231 560.531L386.64 561.357L384.027 562.152L381.391 562.916L378.734 563.646L376.056 564.343L373.358 565.004L370.64 565.629L367.903 566.217L365.148 566.766L362.375 567.276L359.585 567.745L356.778 568.173L353.957 568.558L351.121 568.899L348.272 569.197L345.411 569.449L342.538 569.654L339.654 569.813L336.761 569.924L333.859 569.987L330.951 570L328.036 569.963L325.116 569.875L322.192 569.736L319.265 569.545L316.337 569.302L313.409 569.005L310.482 568.654L307.558 568.25L304.637 567.79L301.721 567.275L298.812 566.705L295.91 566.079L293.018 565.397L290.137 564.659L287.267 563.863L284.412 563.011L281.571 562.102L278.747 561.136L275.941 560.112L273.154 559.03L270.389 557.891L267.647 556.695L264.929 555.44L262.237 554.128L259.573 552.758L256.939 551.33L254.337 549.845L251.767 548.303L249.232 546.703L246.733 545.046L244.273 543.333L241.853 541.564L239.474 539.739L237.139 537.858L234.849 535.924L232.606 533.935L230.411 531.893L228.266 529.799L226.172 527.653L224.132 525.457L222.146 523.211L220.216 520.916L218.343 518.574L216.53 516.186L214.776 513.753L213.083 511.276L211.453 508.757L209.887 506.197L208.385 503.597L206.949 500.96L205.58 498.286L204.278 495.578L203.044 492.836L201.88 490.063L200.785 487.261L199.761 484.43L198.808 481.573L197.926 478.691L197.116 475.787L196.378 472.862L195.713 469.918L195.121 466.957L194.602 463.981L194.155 460.991L193.782 457.99L193.482 454.979L193.254 451.961L193.098 448.938L193.013 445.91L193 442.881L193.057 439.853L193.184 436.826L193.379 433.804L193.643 430.788L193.973 427.78L194.369 424.781L194.829 421.794L195.352 418.82L195.937 415.862L196.582 412.92L197.286 409.996L198.046 407.092L198.862 404.209L199.731 401.35L200.652 398.514L201.623 395.704L202.641 392.921L203.705 390.165L204.813 387.439L205.963 384.743L207.152 382.077L208.378 379.443L209.64 376.842L210.934 374.275L212.259 371.741L213.613 369.241L214.993 366.777L216.397 364.347L217.823 361.953L219.268 359.595L220.731 357.272L222.21 354.985L223.702 352.734L225.205 350.518L226.717 348.338L228.236 346.193L229.76 344.082L231.288 342.006L232.817 339.963L234.347 337.954L235.874 335.977L237.398 334.032L238.917 332.118L240.43 330.234L241.935 328.381L243.431 326.556L244.917 324.758L246.392 322.988L247.855 321.244L249.306 319.524L250.742 317.829L252.164 316.157L253.571 314.507L254.963 312.878L256.338 311.269L257.697 309.679L259.04 308.107L260.366 306.553L261.675 305.014L262.968 303.491L264.243 301.982L265.502 300.487L266.745 299.004L267.972 297.532L269.182 296.072L270.378 294.622L271.559 293.181L272.725 291.749L273.877 290.325L275.017 288.908L276.143 287.498L277.258 286.095L278.361 284.697L279.454 283.304L280.536 281.916L281.609 280.533L282.674 279.153L283.731 277.777L284.78 276.404L285.823 275.034L286.859 273.667L287.89 272.301L288.916 270.937L289.938 269.575L290.957 268.215L291.974 266.856L292.989 265.499L294.004 264.143L295.02 262.79L296.037 261.438L297.056 260.089L298.08 258.743L299.108 257.401L300.143 256.063L301.185 254.729L302.234 253.401L303.294 252.079L304.363 250.765L305.444 249.458L306.538 248.161L307.645 246.874L308.767 245.598L309.904 244.335L311.058 243.086L312.228 241.852L313.417 240.634L314.624 239.434L315.85 238.252L317.097 237.092L318.363 235.953L319.65 234.838L320.958 233.747L322.288 232.682L323.638 231.644L325.011 230.635L326.404 229.656L327.819 228.707L329.255 227.792L330.711 226.909L332.188 226.061L333.685 225.249L335.201 224.473L336.736 223.734L338.288 223.033L339.858 222.37L341.445 221.747L343.046 221.163L344.662 220.618L346.292 220.114L347.934 219.649L349.587 219.224L351.25 218.839L352.922 218.493L354.601 218.186L356.286 217.916L357.976 217.684L359.67 217.488L361.367 217.327L363.064 217.199L364.762 217.105L366.458 217.041L368.152 217.007L369.843 217L371.529 217.019L373.209 217.063L374.883 217.128L376.55 217.214L378.209 217.317L379.859 217.437L381.5 217.57L383.131 217.715L384.752 217.869L386.362 218.03L387.962 218.196L389.552 218.364L391.131 218.534L392.699 218.702L394.257 218.866L395.805 219.026L397.344 219.179L398.874 219.323L400.395 219.456L401.908 219.579L403.414 219.689L404.914 219.785L406.408 219.866L407.898 219.932L409.384 219.982L410.868 220.017L412.349 220.035L413.83 220.038L415.311 220.025L416.793 219.998L418.277 219.956L419.764 219.901L421.254 219.833L422.749 219.754L424.249 219.664L425.754 219.565L427.266 219.457L428.785 219.344L430.311 219.225L431.845 219.102L433.387 218.978L434.937 218.853L436.496 218.73L438.063 218.61L439.639 218.495L441.223 218.387L442.815 218.288L444.416 218.2L446.024 218.125L447.639 218.064L449.261 218.02L450.889 217.994L452.522 217.988L454.16 218.005L455.801 218.046L457.446 218.112L459.091 218.205L460.738 218.328L462.384 218.481L464.029 218.665L465.671 218.883L467.308 219.135L468.941 219.423L470.567 219.747L472.185 220.108L473.794 220.508L475.393 220.946L476.979 221.424L478.553 221.942L480.112 222.5L481.656 223.097L483.182 223.735L484.691 224.413L486.181 225.131L487.651 225.889L489.099 226.685L490.526 227.519L491.93 228.391L493.31 229.3L494.666 230.245L495.997 231.225L497.303 232.239L498.582 233.286L499.835 234.365L501.061 235.475L502.261 236.613L503.434 237.78L504.579 238.972L505.698 240.19L506.791 241.431L507.857 242.694L508.897 243.978L509.912 245.28L510.903 246.599L511.87 247.933L512.813 249.282L513.735 250.643L514.635 252.015L515.516 253.396L516.378 254.785L517.222 256.18L518.049 257.581L518.862 258.985L519.661 260.393L520.447 261.801L521.223 263.211L521.989 264.62L522.746 266.028L523.497 267.434L524.242 268.837L524.983 270.238L525.721 271.635L526.456 273.028L527.191 274.418L527.926 275.803L528.661 277.185L529.398 278.564L530.137 279.939L530.878 281.31L531.622 282.68L532.369 284.047L533.12 285.413L533.873 286.778L534.63 288.143L535.39 289.508L536.152 290.873L536.918 292.24L537.686 293.61L538.457 294.982L539.229 296.358L540.002 297.738L540.776 299.123L541.55 300.513L542.323 301.909L543.094 303.313L543.863 304.723L544.629 306.142L545.39 307.569L546.146 309.005L546.895 310.45L547.637 311.905L548.37 313.371L549.093 314.847L549.805 316.333L550.505 317.831L551.191 319.341L551.862 320.861L552.518 322.394L553.156 323.937L553.777 325.493L554.377 327.059L554.957 328.637L555.516 330.226L556.052 331.826L556.563 333.436L557.051 335.057L557.512 336.687L557.948 338.327L558.356 339.976L558.736 341.634L559.089 343.299L559.412 344.972L559.706 346.652L559.97 348.338" fill="#E07A5F"/>
</g>
<defs>
<clipPath id="clip0_1047_399">
<rect width="511" height="499" fill="white"/>
</clipPath>
</defs>
</svg>
