<svg width="40" height="40" viewBox="0 0 40 40" fill="none" xmlns="http://www.w3.org/2000/svg">
<path d="M16.0404 35.7707C23.5396 35.7707 29.6188 29.6914 29.6188 22.1922C29.6188 14.6931 23.5396 8.61377 16.0404 8.61377C8.5412 8.61377 2.46191 14.6931 2.46191 22.1922C2.46191 29.6914 8.5412 35.7707 16.0404 35.7707Z" fill="#E07A5F"/>
<path d="M16.1939 32.6874L16.0217 32.3939C13.3909 27.9116 6.39998 18.3995 6.32936 18.3039L6.22852 18.1669L8.61029 15.8131L16.1497 21.0776C20.8967 14.9177 25.3253 10.6868 28.2141 8.21609C31.3741 5.5134 33.4311 4.26917 33.4519 4.25725L33.4987 4.22925H37.5388L37.1529 4.57294C27.2276 13.4134 16.4696 32.2029 16.3624 32.3917L16.1939 32.6874Z" fill="#A4BE7B"/>
</svg>
